<?xml version="1.0" encoding="utf-8"?>
<!-- Generator: Adobe Illustrator 16.0.0, SVG Export Plug-In . SVG Version: 6.00 Build 0)  -->
<!DOCTYPE svg PUBLIC "-//W3C//DTD SVG 1.1//EN" "http://www.w3.org/Graphics/SVG/1.1/DTD/svg11.dtd">
<svg version="1.1" id="圖層_1" xmlns="http://www.w3.org/2000/svg" xmlns:xlink="http://www.w3.org/1999/xlink" x="0px" y="0px"
	 width="329.75px" height="329.75px" viewBox="0 0 329.75 329.75" enable-background="new 0 0 329.75 329.75" xml:space="preserve">
<g>
	<path fill="#EBEBEB" d="M125.19,109.971h7.915c0.673,0,1.264,0.449,1.445,1.097l12.276,44.02l13.635-44.061
		c0.194-0.628,0.775-1.057,1.433-1.057h8.165c0.674,0,1.267,0.45,1.444,1.1l12.222,44.117l12.063-44.11
		c0.179-0.652,0.771-1.104,1.446-1.104h8.861c0.047,0,0.092,0.012,0.139,0.016c0.199-0.025,0.396-0.061,0.602-0.061h44.525
		c-11.693-36.617-46.038-63.209-86.48-63.209c-40.448,0-74.797,26.593-86.492,63.209h46.36
		C124.901,109.926,125.044,109.956,125.19,109.971z"/>
	<path fill="#EBEBEB" d="M275.75,0H54C24.177,0,0,24.177,0,54v221.75c0,29.821,24.177,54,54,54h221.75c29.823,0,54-24.179,54-54V54
		C329.75,24.177,305.573,0,275.75,0z M246.18,227.547c-2.838,3.921-7.425,6.263-12.271,6.263c-3.193,0-6.252-0.99-8.847-2.865
		c-3.274-2.364-5.433-5.863-6.074-9.854c-0.643-3.99,0.31-7.99,2.679-11.264c28.081-38.854,33.978-60.786,33.978-72.346
		c0-6.355-0.66-12.563-1.91-18.555h-46.896c-0.471,0-0.916-0.093-1.343-0.227l-15.792,52.605c-0.189,0.634-0.773,1.069-1.438,1.069
		h-9.291c-0.668,0-1.256-0.441-1.439-1.083l-12.228-42.217L152.1,171.323c-0.195,0.628-0.775,1.054-1.432,1.054h-8.916
		c-0.66,0-1.243-0.434-1.436-1.064l-15.914-52.385H76.019c-1.25,5.992-1.91,12.198-1.91,18.555c0,17.003,12.347,42.814,35.728,74.72
		h63.784c8.339,0,15.123,6.783,15.123,15.125c0,8.34-6.784,15.125-15.123,15.125h-39.834c4.011,4.733,8.156,9.493,12.389,14.225
		h43.34c8.338,0,15.121,6.782,15.121,15.12c0,3.373-1.141,6.664-3.22,9.322c-0.636,1.242-1.433,2.386-2.371,3.398
		c-7.053,7.643-13.093,13.869-16.917,17.748c-2.105,2.138-3.779,3.801-4.931,4.932c-2.144,2.12-6.149,6.087-12.285,6.087
		c-1.825,0-3.692-0.368-5.551-1.096l-2.817-1.104l-2.176-2.101c-0.265-0.255-27.218-26.271-54.217-59.771
		c-37.351-46.35-56.289-83.94-56.289-111.733c0-66.726,54.289-121.011,121.019-121.011c66.722,0,121.003,54.286,121.005,121.012
		C285.887,160.792,272.527,191.095,246.18,227.547z"/>
</g>
</svg>
