<?xml version="1.0" encoding="utf-8"?>
<!-- Generator: Adobe Illustrator 16.0.0, SVG Export Plug-In . SVG Version: 6.00 Build 0)  -->
<!DOCTYPE svg PUBLIC "-//W3C//DTD SVG 1.1//EN" "http://www.w3.org/Graphics/SVG/1.1/DTD/svg11.dtd">
<svg version="1.1" id="圖層_1" xmlns="http://www.w3.org/2000/svg" xmlns:xlink="http://www.w3.org/1999/xlink" x="0px" y="0px"
	 width="300px" height="300px" viewBox="0 0 300 300" enable-background="new 0 0 300 300" xml:space="preserve">
<g>
	<defs>
		<path id="SVGID_1_" d="M538.885,106.636c0,17.266-10.015,39.885-29.771,67.22c-3.067,4.244-8.997,5.201-13.25,2.133
			c-4.252-3.074-5.201-9.004-2.133-13.256c21.632-29.932,26.172-47.023,26.172-56.097c0-39.096-31.806-70.902-70.895-70.902
			c-39.104,0-70.91,31.807-70.91,70.902c0,15.679,12.574,37.691,28.094,58.724h51.358c5.247,0,9.491,4.252,9.491,9.49
			c0,5.248-4.244,9.492-9.491,9.492h-36.431c4.328,5.193,8.648,10.166,12.794,14.783h33.796c3.781,0,7.198,2.248,8.701,5.717
			c1.512,3.471,0.806,7.502-1.776,10.266l-17.904,19.119c-2.429,2.59-5.019,3.895-7.722,3.895c-1.146,0-2.316-0.234-3.5-0.697
			c-1.154-0.465-2.209-1.139-3.098-1.998c-0.844-0.813-20.76-20.09-41.002-45.207c-2.627-3.266-5.141-6.469-7.525-9.613
			c-0.022-0.029-0.037-0.053-0.053-0.076c-23.044-30.378-34.715-55.208-34.715-73.894c0-49.559,40.326-89.885,89.893-89.885
			C498.568,16.751,538.885,57.077,538.885,106.636z"/>
	</defs>
	<clipPath id="SVGID_2_">
		<use xlink:href="#SVGID_1_"  overflow="visible"/>
	</clipPath>
	<circle clip-path="url(#SVGID_2_)" fill="#FFE44B" cx="449.001" cy="127.417" r="149.833"/>
</g>
<g>
	<defs>
		<path id="SVGID_3_" d="M-330.115,129.218c0,17.266-10.015,39.885-29.771,67.22c-3.067,4.244-8.997,5.2-13.25,2.133
			c-4.252-3.074-5.201-9.005-2.133-13.257c21.632-29.932,26.172-47.022,26.172-56.096c0-39.096-31.806-70.902-70.895-70.902
			c-39.104,0-70.91,31.807-70.91,70.902c0,15.679,12.574,37.691,28.094,58.723h51.358c5.247,0,9.491,4.253,9.491,9.491
			c0,5.247-4.244,9.491-9.491,9.491h-36.431c4.328,5.193,8.648,10.167,12.794,14.784h33.796c3.781,0,7.198,2.247,8.701,5.717
			c1.512,3.47,0.806,7.502-1.776,10.266l-17.904,19.119c-2.429,2.589-5.019,3.895-7.722,3.895c-1.146,0-2.316-0.234-3.5-0.698
			c-1.154-0.464-2.209-1.139-3.098-1.997c-0.843-0.813-20.759-20.091-41.002-45.208c-2.627-3.265-5.14-6.469-7.524-9.612
			c-0.023-0.03-0.038-0.053-0.053-0.076c-23.044-30.379-34.714-55.208-34.714-73.894c0-49.559,40.326-89.885,89.892-89.885
			C-370.432,39.333-330.115,79.659-330.115,129.218z"/>
	</defs>
	<clipPath id="SVGID_4_">
		<use xlink:href="#SVGID_3_"  overflow="visible"/>
	</clipPath>
	<circle clip-path="url(#SVGID_4_)" fill="#172A3B" cx="-419.999" cy="150" r="149.833"/>
</g>
<path fill="#172A3B" d="M295,150c0,80.081-64.919,145-145,145S5,230.081,5,150S69.919,5,150,5S295,69.919,295,150z M150,48.84
	c-45.521,0-82.56,37.04-82.56,82.56c0,17.098,10.484,39.604,31.19,66.99c0.033,0.051,0.076,0.11,0.118,0.162
	c0.145,0.203,0.306,0.406,0.458,0.61c0.009,0.009,0.017,0.026,0.034,0.043c2.071,2.725,4.245,5.501,6.52,8.327
	c18.192,22.583,36.114,39.926,36.869,40.648c1.979,1.91,4.618,2.979,7.369,2.979c0.085,0,0.178,0,0.263-0.008
	c2.844-0.068,5.536-1.273,7.479-3.354l16.741-17.88c2.896-3.081,3.676-7.589,1.995-11.469s-5.51-6.393-9.737-6.393h-29.356
	c-2.598-2.912-5.221-5.917-7.819-8.99h28.083c5.866,0,10.612-4.754,10.612-10.612c0-5.866-4.746-10.611-10.612-10.611h-44.832
	c-13.736-18.855-24.152-37.685-24.152-50.444c0-33.822,27.514-61.336,61.336-61.336c33.821,0,61.336,27.514,61.336,61.336
	c0,7.811-3.99,22.633-23.023,48.967c-3.43,4.755-2.36,11.385,2.386,14.814c4.754,3.438,11.384,2.368,14.813-2.386
	c18.202-25.18,27.048-45.266,27.048-61.396C232.56,85.879,195.529,48.84,150,48.84z"/>
<ellipse fill="#FFE44B" cx="259.25" cy="207.5" rx="0.75" ry="0"/>
</svg>
