<?xml version="1.0" encoding="utf-8"?>
<!-- Generator: Adobe Illustrator 16.0.0, SVG Export Plug-In . SVG Version: 6.00 Build 0)  -->
<!DOCTYPE svg PUBLIC "-//W3C//DTD SVG 1.1//EN" "http://www.w3.org/Graphics/SVG/1.1/DTD/svg11.dtd">
<svg version="1.1" id="圖層_1" xmlns="http://www.w3.org/2000/svg" xmlns:xlink="http://www.w3.org/1999/xlink" x="0px" y="0px"
	 width="800px" height="600px" viewBox="0 0 800 600" enable-background="new 0 0 800 600" xml:space="preserve">
<g>
	
		<line fill="none" stroke="#EBEBEB" stroke-width="25" stroke-miterlimit="10" x1="561.712" y1="118.523" x2="318.419" y2="118.523"/>
	
		<line fill="none" stroke="#FFFFFF" stroke-width="3" stroke-miterlimit="10" stroke-dasharray="12,35" x1="561.712" y1="118.523" x2="318.419" y2="118.523"/>
</g>
<g>
	<polyline fill="none" stroke="#EBEBEB" stroke-width="25" stroke-miterlimit="10" points="692.79,118.523 565.038,118.523 
		565.038,77.273 	"/>
	<g>
		<polyline fill="none" stroke="#604C3F" stroke-width="3" stroke-miterlimit="10" points="686.332,118.523 565.038,118.523 
			565.038,83.731 		"/>
		<g>
			<polygon fill="#604C3F" points="685.019,114.036 692.79,118.523 685.019,123.011 			"/>
		</g>
		<g>
			<polygon fill="#604C3F" points="569.525,85.045 565.038,77.273 560.551,85.045 			"/>
		</g>
	</g>
</g>
<g>
	
		<line fill="none" stroke="#EBEBEB" stroke-width="25" stroke-miterlimit="10" x1="49.688" y1="225.523" x2="612.052" y2="225.523"/>
	
		<line fill="none" stroke="#FFFFFF" stroke-width="3" stroke-linecap="round" stroke-miterlimit="10" stroke-dasharray="12,35" x1="49.688" y1="225.523" x2="612.052" y2="225.523"/>
</g>
<g>
	
		<line fill="none" stroke="#EBEBEB" stroke-width="25" stroke-miterlimit="10" x1="201.137" y1="489.975" x2="765.79" y2="489.975"/>
	<g>
		
			<line fill="none" stroke="#F29D09" stroke-width="3" stroke-linecap="round" stroke-miterlimit="10" x1="201.137" y1="489.975" x2="759.72" y2="489.975"/>
		<g>
			<g>
				<circle fill="#FFFFFF" cx="759.4" cy="489.975" r="5.64"/>
				<path fill="#F29D09" d="M759.4,496.364c-3.523,0-6.39-2.866-6.39-6.39s2.866-6.39,6.39-6.39s6.39,2.866,6.39,6.39
					S762.924,496.364,759.4,496.364S762.924,496.364,759.4,496.364z M759.4,485.085c-2.697,0-4.89,2.192-4.89,4.89
					s2.192,4.89,4.89,4.89s4.89-2.192,4.89-4.89S762.098,485.085,759.4,485.085S762.098,485.085,759.4,485.085z"/>
			</g>
		</g>
	</g>
</g>
<line fill="none" x1="115.055" y1="472.36" x2="692.001" y2="472.36"/>
<text transform="matrix(1 0 0 1 302.1602 472.3604)"><tspan x="0" y="0" fill="#656A6C" font-family="'MicrosoftJhengHeiBold'" font-size="15">中</tspan><tspan x="14.989" y="0" fill="#656A6C" font-family="'MicrosoftJhengHeiBold'" font-size="15">正</tspan><tspan x="30.006" y="0" fill="#656A6C" font-family="'MicrosoftJhengHeiBold'" font-size="15">路</tspan><tspan x="45.004" y="0" fill="#656A6C" font-family="'MicrosoftJhengHeiBold'" font-size="15">三</tspan><tspan x="60.02" y="0" fill="#656A6C" font-family="'MicrosoftJhengHeiBold'" font-size="15">路</tspan></text>
<line fill="none" x1="159.755" y1="206.19" x2="736.7" y2="206.19"/>
<text transform="matrix(1 0 0 1 346.8604 206.1899)"><tspan x="0" y="0" fill="#656A6C" font-family="'MicrosoftJhengHeiBold'" font-size="15">建</tspan><tspan x="14.989" y="0" fill="#656A6C" font-family="'MicrosoftJhengHeiBold'" font-size="15">國</tspan><tspan x="30.007" y="0" fill="#656A6C" font-family="'MicrosoftJhengHeiBold'" font-size="15">二</tspan><tspan x="45.005" y="0" fill="#656A6C" font-family="'MicrosoftJhengHeiBold'" font-size="15">路</tspan></text>
<path fill="#EBEBEB" d="M121.727,147.8c0.603,0,1.09-0.487,1.09-1.09v-2.18c0-0.603-0.487-1.09-1.09-1.09l-18.53-9.001
	l-18.529,9.001c-0.603,0-1.09,0.487-1.09,1.09v2.18c0,0.603,0.487,1.09,1.09,1.09h1.088v26.16h-1.088c-0.603,0-1.09,0.487-1.09,1.09
	v2.181c0,0.602,0.487,1.09,1.09,1.09h16.35v-5.45c0-0.6,0.49-1.091,1.09-1.091h2.18c0.6,0,1.09,0.491,1.09,1.091v5.45h16.351
	c0.603,0,1.09-0.488,1.09-1.09v-2.181c0-0.603-0.487-1.09-1.09-1.09h-1.09V147.8H121.727z M101.017,150.852
	c0-0.436,0.437-0.871,0.872-0.871h2.616c0.436,0,0.871,0.436,0.871,0.871v2.616c0,0.437-0.436,0.872-0.871,0.872h-2.616
	c-0.436,0-0.872-0.436-0.872-0.872V150.852L101.017,150.852z M101.017,157.392c0-0.436,0.437-0.871,0.872-0.871h2.616
	c0.436,0,0.871,0.436,0.871,0.871v2.616c0,0.437-0.436,0.872-0.871,0.872h-2.616c-0.436,0-0.872-0.436-0.872-0.872V157.392
	L101.017,157.392z M92.297,150.852c0-0.436,0.437-0.871,0.872-0.871h2.615c0.437,0,0.873,0.436,0.873,0.871v2.616
	c0,0.437-0.437,0.872-0.873,0.872h-2.615c-0.436,0-0.872-0.436-0.872-0.872V150.852L92.297,150.852z M95.784,160.88h-2.615
	c-0.436,0-0.872-0.436-0.872-0.872v-2.616c0-0.436,0.437-0.871,0.872-0.871h2.615c0.437,0,0.873,0.436,0.873,0.871v2.616
	C96.657,160.444,96.221,160.88,95.784,160.88L95.784,160.88z M96.657,169.6c0-3.611,2.927-6.54,6.539-6.54s6.54,2.929,6.54,6.54
	H96.657z M114.097,160.008c0,0.437-0.436,0.872-0.872,0.872h-2.616c-0.436,0-0.872-0.436-0.872-0.872v-2.616
	c0-0.436,0.437-0.871,0.872-0.871h2.616c0.437,0,0.872,0.436,0.872,0.871V160.008z M114.097,153.468
	c0,0.437-0.436,0.872-0.872,0.872h-2.616c-0.436,0-0.872-0.436-0.872-0.872v-2.616c0-0.436,0.437-0.871,0.872-0.871h2.616
	c0.437,0,0.872,0.436,0.872,0.871V153.468z"/>
<text transform="matrix(1 0 0 1 65.7041 201.3843)" fill="#656A6C" font-family="'MicrosoftJhengHeiBold'" font-size="15">高雄火車站</text>
<g>
	
		<line fill="none" stroke="#EBEBEB" stroke-width="25" stroke-miterlimit="10" x1="201.137" y1="489.975" x2="59.194" y2="546.568"/>
	<g>
		<line fill="none" stroke="#F29D09" stroke-width="3" stroke-miterlimit="10" x1="201.137" y1="489.975" x2="64.833" y2="544.32"/>
		<g>
			<g>
				<circle fill="#FFFFFF" cx="65.13" cy="544.202" r="5.64"/>
				<path fill="#F29D09" d="M62.763,538.267c3.272-1.305,6.997,0.297,8.302,3.569c1.305,3.271-0.296,6.996-3.569,8.301
					c-3.272,1.306-6.997-0.296-8.302-3.568S59.491,539.571,62.763,538.267S59.491,539.571,62.763,538.267z M66.94,548.744
					c2.505-0.999,3.73-3.848,2.731-6.354c-0.999-2.505-3.848-3.729-6.353-2.73c-2.505,0.999-3.73,3.848-2.731,6.353
					C61.586,548.518,64.436,549.742,66.94,548.744C69.445,547.745,64.436,549.742,66.94,548.744z"/>
			</g>
		</g>
	</g>
</g>
<path fill="none" stroke="#FFFFFF" stroke-width="3" stroke-linecap="round" stroke-miterlimit="10" stroke-dasharray="12,35" d="
	M699.31,492.439"/>
<g>
	<path fill-rule="evenodd" clip-rule="evenodd" fill="#005295" d="M451.489,492.032c0.692-0.146,1.413-0.108,2.105-0.048
		c0.813,0.073,1.245-0.196,1.591-0.952c0.717-1.566,1.563-3.073,2.332-4.618c0.188-0.376,0.389-0.563,0.843-0.549
		c1.124,0.036,2.25,0.012,3.361,0.012c-0.433,2.656-2.785,3.404-4.754,4.816c4.022,0,7.848,0,11.702,0
		c-0.134,0.451-0.433,0.319-0.656,0.321c-1.176,0.012-2.354,0.019-3.53-0.001c-0.429-0.007-0.612,0.014-0.492,0.56
		c0.37,1.659,0.635,3.341,0.992,5.002c0.113,0.521-0.047,0.583-0.497,0.575c-1.228-0.024-2.454-0.021-3.682-0.001
		c-0.36,0.006-0.545-0.089-0.612-0.466c-0.184-1.033-0.384-2.064-0.609-3.09c-0.07-0.321,0.065-0.454,0.309-0.582
		c0.347-0.183,0.684-0.384,0.993-0.716c-3.133,0-6.264,0-9.396,0C451.489,492.208,451.489,492.12,451.489,492.032z"/>
	<path fill-rule="evenodd" clip-rule="evenodd" fill="#005295" d="M469.95,486.18c-1.576,1.057-3.151,2.113-4.727,3.172
		c-0.168,0.112-0.337,0.2-0.551,0.199c-1.47-0.005-2.939-0.003-4.646-0.003c1.395-0.938,2.637-1.705,3.801-2.577
		c0.944-0.706,1.917-1.063,3.11-0.952c0.986,0.092,1.987,0.019,2.98,0.019C469.929,486.085,469.939,486.133,469.95,486.18z"/>
	<path fill-rule="evenodd" clip-rule="evenodd" fill="#015296" d="M458.076,493.317c-0.634,1.244-1.212,2.37-1.78,3.502
		c-0.114,0.23-0.269,0.327-0.525,0.326c-1.074-0.009-2.149-0.009-3.223-0.001c-0.344,0.002-0.467-0.079-0.283-0.431
		c0.532-1.017,1.053-2.038,1.562-3.065c0.131-0.265,0.311-0.34,0.591-0.336C455.592,493.325,456.766,493.317,458.076,493.317z"/>
	<path fill-rule="evenodd" clip-rule="evenodd" fill="#149CDF" d="M470.273,483.566L470.273,483.566c0.001,0-2.825-2.727-9.13-1.758
		c-0.306,0.023-0.609,0.063-0.908,0.131c-0.599,0.136-1.188,0.288-1.768,0.458c-8.157,2.32-11.765,7.818-11.765,7.818l0.003-0.002
		c-0.277,0.386-0.528,0.79-0.735,1.224c-0.354,0.738-0.258,0.86,0.531,0.863c1.05,0.005,2.1-0.02,3.147,0.016
		c0.251,0.009,0.442-0.007,0.564-0.243c0.157-0.565,0.501-1.033,0.832-1.497c2.081-2.907,4.928-4.791,8.222-6.044
		c2.732-1.039,5.539-1.58,8.447-0.867c2.161,0.531,3.776,1.7,4.244,4.037c0.065,0.322,0.074,0.656,0.129,1.178
		C472.477,486.704,471.801,484.832,470.273,483.566z"/>
	<path fill-rule="evenodd" clip-rule="evenodd" fill="#0093DD" d="M474.13,494.006c0.071-0.081,0.139-0.16,0.203-0.238
		c0.041-0.05,0.083-0.1,0.124-0.151c0.06-0.074,0.117-0.147,0.173-0.218c0.027-0.036,0.054-0.072,0.082-0.108
		c0.613-0.818,0.872-1.408,0.982-1.753c0.026-0.069,0.056-0.139,0.08-0.211c0-0.05,0-0.1,0-0.15c-1.101-0.004-2.204,0.048-3.3-0.029
		c-0.781-0.056-1.24,0.182-1.539,0.913c-0.187,0.453-0.514,0.857-0.822,1.248c-2.586,3.259-6.004,5.219-9.971,6.271
		c-2.352,0.623-4.74,0.811-7.094-0.003c-2.117-0.733-3.444-2.156-3.609-4.487c-0.041-0.068-0.084-0.073-0.128-0.004
		c-0.294,2.087,0.613,3.964,2.427,5.189c0.118,0.084,0.267,0.178,0.456,0.282c0.249,0.143,0.512,0.274,0.789,0.395
		c1.514,0.692,4.554,1.155,8.075,0.579c0.072-0.011,0.143-0.023,0.214-0.036c2.57-0.45,5.379-1.454,8.033-3.327
		c0.025-0.018,0.05-0.035,0.075-0.053c1.42-0.93,2.747-2.021,3.977-3.281c0.155-0.156,0.301-0.306,0.438-0.453v-0.001
		c0,0,0.001-0.001,0.002-0.001c0.097-0.105,0.189-0.207,0.277-0.307C474.093,494.049,474.111,494.027,474.13,494.006z"/>
</g>
<g>
	
		<line fill="none" stroke="#EBEBEB" stroke-width="25" stroke-miterlimit="10" x1="565.038" y1="132.076" x2="565.038" y2="555.264"/>
	<g>
		
			<line fill="none" stroke="#FFFFFF" stroke-width="3" stroke-linecap="round" stroke-miterlimit="10" x1="565.038" y1="132.076" x2="565.038" y2="138.076"/>
		
			<line fill="none" stroke="#FFFFFF" stroke-width="3" stroke-linecap="round" stroke-miterlimit="10" stroke-dasharray="12.0055,35.016" x1="565.038" y1="173.092" x2="565.038" y2="531.756"/>
		
			<line fill="none" stroke="#FFFFFF" stroke-width="3" stroke-linecap="round" stroke-miterlimit="10" x1="565.038" y1="549.264" x2="565.038" y2="555.264"/>
	</g>
</g>
<line fill="none" x1="584.227" y1="112.084" x2="584.227" y2="535.271"/>
<text transform="matrix(-4.371139e-008 1 -1 -4.371139e-008 584.1201 262.0317)"><tspan x="0" y="0" fill="#656A6C" font-family="'MicrosoftJhengHeiBold'" font-size="15">民</tspan><tspan x="15.003" y="0" fill="#656A6C" font-family="'MicrosoftJhengHeiBold'" font-size="15">族</tspan><tspan x="30.017" y="0" fill="#656A6C" font-family="'MicrosoftJhengHeiBold'" font-size="15">二</tspan><tspan x="45.005" y="0" fill="#656A6C" font-family="'MicrosoftJhengHeiBold'" font-size="15">路</tspan></text>
<g>
	
		<line fill="none" stroke="#EBEBEB" stroke-width="25" stroke-miterlimit="10" x1="201.137" y1="123.381" x2="201.137" y2="546.568"/>
	<g>
		
			<line fill="none" stroke="#FF0000" stroke-width="3" stroke-linecap="round" stroke-miterlimit="10" x1="201.137" y1="129.087" x2="201.137" y2="540.498"/>
		<g>
			<g>
				<circle fill="#FFFFFF" cx="201.137" cy="129.387" r="5.301"/>
				<path fill="#FF0000" d="M195.13,129.387c0,3.312,2.695,6.006,6.006,6.006s6.006-2.695,6.006-6.006s-2.695-6.006-6.006-6.006
					S195.13,126.076,195.13,129.387S195.13,126.076,195.13,129.387z M205.733,129.387c0,2.535-2.061,4.596-4.596,4.596
					s-4.596-2.062-4.596-4.596c0-2.535,2.061-4.596,4.596-4.596S205.733,126.852,205.733,129.387
					C205.733,131.922,205.733,126.852,205.733,129.387z"/>
			</g>
		</g>
		<g>
			<g>
				<circle fill="#FFFFFF" cx="201.137" cy="540.179" r="5.64"/>
				<path fill="#FF0000" d="M194.747,540.179c0-3.522,2.867-6.39,6.39-6.39s6.39,2.867,6.39,6.39s-2.867,6.39-6.39,6.39
					S194.747,543.701,194.747,540.179S194.747,543.701,194.747,540.179z M206.026,540.179c0-2.696-2.193-4.89-4.89-4.89
					s-4.89,2.193-4.89,4.89s2.193,4.89,4.89,4.89S206.026,542.875,206.026,540.179S206.026,542.875,206.026,540.179z"/>
			</g>
		</g>
	</g>
</g>
<g>
	<path fill="#232439" d="M477.624,297.076h1.169c0.099,0,0.187,0.065,0.213,0.162l1.813,6.53l2.013-6.536
		c0.028-0.094,0.114-0.157,0.211-0.157h1.206c0.1,0,0.187,0.066,0.213,0.163l1.804,6.546l1.781-6.544
		c0.026-0.098,0.113-0.164,0.214-0.164h1.308c0.007,0,0.014,0.001,0.021,0.002c0.029-0.004,0.059-0.009,0.089-0.009h6.572
		c-1.727-5.432-6.796-9.377-12.766-9.377c-5.971,0-11.041,3.945-12.768,9.377h6.843
		C477.581,297.069,477.603,297.073,477.624,297.076z"/>
	<path fill="#232439" d="M499.85,280.764h-32.734c-4.402,0-7.971,3.586-7.971,8.01v32.849c0,4.402,3.568,7.971,7.971,7.971h32.734
		c4.402,0,7.971-3.568,7.971-7.971v-32.849C507.82,284.35,504.252,280.764,499.85,280.764z M495.484,314.507
		c-0.419,0.578-1.097,0.924-1.812,0.924c-0.472,0-0.923-0.146-1.306-0.423c-0.483-0.35-0.802-0.865-0.896-1.454
		c-0.095-0.59,0.045-1.18,0.396-1.665c4.145-5.764,5.015-9.018,5.015-10.732c0-0.942-0.097-1.863-0.281-2.752h-6.923
		c-0.069,0-0.135-0.014-0.198-0.033l-2.331,7.804c-0.028,0.094-0.114,0.158-0.212,0.158h-1.372c-0.099,0-0.186-0.064-0.212-0.16
		l-1.806-6.264l-1.949,6.268c-0.029,0.094-0.114,0.156-0.212,0.156h-1.315c-0.098,0-0.184-0.063-0.212-0.157l-2.35-7.771h-7.142
		c-0.185,0.889-0.282,1.81-0.282,2.752c0,2.522,1.822,6.352,5.274,11.085h9.415c1.231,0,2.232,1.001,2.232,2.232
		s-1.001,2.232-2.232,2.232h-5.88c0.592,0.699,1.204,1.401,1.828,2.101h6.398c1.23,0,2.231,1.001,2.231,2.231
		c0,0.498-0.168,0.984-0.476,1.376c-0.093,0.184-0.211,0.353-0.35,0.502c-1.041,1.128-1.933,2.047-2.497,2.62
		c-0.311,0.315-0.558,0.561-0.728,0.728c-0.316,0.313-0.907,0.898-1.813,0.898c-0.27,0-0.545-0.055-0.819-0.161l-0.416-0.163
		l-0.321-0.311c-0.039-0.037-4.018-3.878-8.004-8.823c-5.514-6.849-8.309-12.425-8.309-16.549c0-9.897,8.014-17.95,17.864-17.95
		c9.849,0,17.862,8.053,17.862,17.95C501.346,304.615,499.374,309.11,495.484,314.507z"/>
</g>
<text transform="matrix(1 0 0 1 458.3682 355.7754)" font-family="'MicrosoftJhengHeiBold'" font-size="18">199號</text>
<g>
	
		<line fill="none" stroke="#5FC8CB" stroke-width="25" stroke-linecap="square" stroke-miterlimit="10" x1="626.633" y1="371.928" x2="49.688" y2="371.928"/>
	
		<line fill="none" stroke="#207E89" stroke-width="3" stroke-linecap="round" stroke-miterlimit="10" stroke-dasharray="12,35" x1="626.633" y1="371.928" x2="49.688" y2="371.928"/>
</g>
<line fill="none" x1="-41.313" y1="355.775" x2="535.633" y2="355.775"/>
<text transform="matrix(1 0 0 1 340.9434 355.6221)"><tspan x="0" y="0" font-family="'MicrosoftJhengHeiBold'" font-size="18">七</tspan><tspan x="18.019" y="0" font-family="'MicrosoftJhengHeiBold'" font-size="18">賢</tspan><tspan x="36.008" y="0" font-family="'MicrosoftJhengHeiBold'" font-size="18">路</tspan><tspan x="54.02" y="0" font-family="'MicrosoftJhengHeiBold'" font-size="18">一</tspan><tspan x="72.011" y="0" font-family="'MicrosoftJhengHeiBold'" font-size="18">路</tspan></text>
<g>
	<g>
		
			<polyline fill="none" stroke="#EBEBEB" stroke-width="25" stroke-linecap="round" stroke-linejoin="bevel" stroke-miterlimit="10" points="
			729.041,541.975 636.141,371.928 654.328,311.365 		"/>
		
			<polyline fill="none" stroke="#FFFFFF" stroke-width="3" stroke-linecap="round" stroke-linejoin="bevel" stroke-miterlimit="10" stroke-dasharray="12,35" points="
			729.041,541.975 636.141,371.928 654.328,311.365 		"/>
	</g>
	<polyline fill="none" points="674.562,311.365 656.374,371.928 749.274,541.975 	"/>
	<text transform="matrix(-0.2876 0.9578 -0.9578 -0.2876 664.3164 345.124)"><tspan x="0" y="0" fill="#656A6C" font-family="'MicrosoftJhengHeiBold'" font-size="15">和</tspan><tspan x="15.012" y="0" fill="#656A6C" font-family="'MicrosoftJhengHeiBold'" font-size="15" rotate="0.004">平</tspan><tspan x="33.273" y="-5.353" fill="#656A6C" font-family="'MicrosoftJhengHeiBold'" font-size="15" rotate="-45.363">一</tspan><tspan x="43.822" y="-16.036" fill="#656A6C" font-family="'MicrosoftJhengHeiBold'" font-size="15" rotate="-45.363">路</tspan></text>
</g>
<g>
	<path fill-rule="evenodd" clip-rule="evenodd" fill="#005295" d="M694.233,492.032c0.691-0.146,1.413-0.108,2.105-0.048
		c0.813,0.072,1.245-0.196,1.591-0.952c0.717-1.566,1.563-3.073,2.332-4.618c0.188-0.376,0.389-0.563,0.843-0.549
		c1.124,0.036,2.25,0.012,3.361,0.012c-0.433,2.656-2.785,3.404-4.754,4.816c4.022,0,7.848,0,11.702,0
		c-0.134,0.451-0.433,0.319-0.656,0.321c-1.176,0.012-2.354,0.019-3.53-0.001c-0.43-0.007-0.612,0.014-0.492,0.56
		c0.37,1.658,0.635,3.341,0.992,5.002c0.113,0.521-0.047,0.583-0.497,0.575c-1.228-0.024-2.455-0.021-3.682-0.001
		c-0.36,0.006-0.545-0.089-0.612-0.466c-0.184-1.034-0.385-2.065-0.609-3.091c-0.07-0.321,0.065-0.453,0.309-0.581
		c0.346-0.183,0.684-0.384,0.993-0.716c-3.133,0-6.264,0-9.396,0C694.233,492.208,694.233,492.12,694.233,492.032z"/>
	<path fill-rule="evenodd" clip-rule="evenodd" fill="#005295" d="M712.694,486.18c-1.576,1.057-3.152,2.113-4.728,3.172
		c-0.167,0.112-0.336,0.2-0.55,0.199c-1.47-0.005-2.939-0.004-4.647-0.004c1.396-0.937,2.638-1.704,3.802-2.576
		c0.944-0.707,1.917-1.063,3.11-0.953c0.986,0.092,1.987,0.02,2.98,0.02C712.673,486.085,712.684,486.132,712.694,486.18z"/>
	<path fill-rule="evenodd" clip-rule="evenodd" fill="#015296" d="M700.82,493.317c-0.634,1.243-1.213,2.37-1.78,3.502
		c-0.115,0.23-0.269,0.327-0.525,0.326c-1.074-0.009-2.149-0.009-3.223-0.001c-0.344,0.002-0.467-0.079-0.283-0.431
		c0.532-1.017,1.052-2.038,1.561-3.065c0.132-0.265,0.311-0.34,0.592-0.337C698.335,493.325,699.509,493.317,700.82,493.317z"/>
	<path fill-rule="evenodd" clip-rule="evenodd" fill="#149CDF" d="M713.018,483.565L713.018,483.565c0.001,0-2.825-2.726-9.13-1.757
		c-0.306,0.023-0.609,0.063-0.908,0.13c-0.6,0.137-1.188,0.289-1.769,0.459c-8.156,2.319-11.764,7.818-11.764,7.818l0.003-0.002
		c-0.277,0.386-0.529,0.789-0.736,1.224c-0.354,0.738-0.258,0.86,0.532,0.863c1.05,0.005,2.099-0.02,3.147,0.016
		c0.251,0.009,0.442-0.007,0.564-0.243c0.156-0.566,0.5-1.033,0.832-1.497c2.08-2.908,4.928-4.791,8.222-6.044
		c2.732-1.039,5.539-1.58,8.447-0.867c2.161,0.53,3.776,1.7,4.244,4.037c0.065,0.322,0.074,0.656,0.129,1.178
		C715.221,486.704,714.545,484.832,713.018,483.565z"/>
	<path fill-rule="evenodd" clip-rule="evenodd" fill="#0093DD" d="M716.874,494.006c0.071-0.081,0.139-0.161,0.203-0.238
		c0.041-0.05,0.083-0.101,0.124-0.151c0.06-0.074,0.117-0.147,0.173-0.219c0.027-0.035,0.054-0.071,0.082-0.107
		c0.613-0.818,0.872-1.408,0.982-1.753c0.026-0.07,0.056-0.139,0.08-0.211c0-0.05,0-0.1,0-0.15c-1.101-0.004-2.204,0.048-3.3-0.03
		c-0.781-0.055-1.24,0.183-1.539,0.914c-0.187,0.453-0.514,0.857-0.822,1.248c-2.586,3.259-6.004,5.219-9.971,6.271
		c-2.352,0.623-4.741,0.811-7.094-0.004c-2.117-0.732-3.445-2.155-3.609-4.486c-0.041-0.068-0.084-0.073-0.129-0.004
		c-0.293,2.087,0.614,3.964,2.428,5.189c0.117,0.084,0.266,0.178,0.455,0.282c0.25,0.143,0.513,0.274,0.79,0.395
		c1.513,0.692,4.554,1.155,8.075,0.578c0.072-0.01,0.143-0.022,0.214-0.035c2.569-0.45,5.379-1.454,8.033-3.327
		c0.025-0.018,0.05-0.035,0.075-0.053c1.42-0.93,2.747-2.021,3.977-3.281c0.155-0.156,0.301-0.306,0.438-0.453v-0.001
		c0,0,0.001-0.001,0.002-0.001c0.097-0.105,0.189-0.207,0.277-0.307C716.837,494.049,716.855,494.027,716.874,494.006z"/>
</g>
<line fill="none" x1="218.693" y1="123.38" x2="218.693" y2="546.568"/>
<text transform="matrix(-4.371139e-008 1 -1 -4.371139e-008 218.7202 265.1182)"><tspan x="0" y="0" fill="#656A6C" font-family="'MicrosoftJhengHeiBold'" font-size="15">中</tspan><tspan x="14.983" y="0" fill="#656A6C" font-family="'MicrosoftJhengHeiBold'" font-size="15">山</tspan><tspan x="30.002" y="0" fill="#656A6C" font-family="'MicrosoftJhengHeiBold'" font-size="15">一</tspan><tspan x="45.017" y="0" fill="#656A6C" font-family="'MicrosoftJhengHeiBold'" font-size="15">路</tspan></text>
<g>
	<ellipse fill="#F29D09" cx="756.762" cy="453.217" rx="31.238" ry="18"/>
	<text transform="matrix(1 0 0 1 734.2617 457.9336)" fill="#207E89" font-family="'MicrosoftJhengHeiBold'" font-size="15">往大寮</text>
</g>
<text transform="matrix(1 0 0 1 600.3633 153.0186)" fill="#09097F" font-family="'MicrosoftJhengHeiBold'" font-size="15">民族站</text>
<g>
	<path fill="none" stroke="#EBEBEB" stroke-width="25" stroke-miterlimit="10" d="M569.227,188.523c0,0,53.02-3.377,74.788,9.144
		c21.77,12.521,74.504,98.108,74.504,98.108"/>
	<path fill="none" stroke="#FFFFFF" stroke-width="3" stroke-miterlimit="10" stroke-dasharray="12,35" d="M569.227,188.523
		c0,0,53.02-3.377,74.788,9.144c21.77,12.521,74.504,98.108,74.504,98.108"/>
</g>
<path fill="#09097F" d="M597.173,148.28c-0.036-0.039-0.085-0.029-0.13-0.029c-0.868-0.001-1.735,0-2.604,0
	c-1.69,0-3.381,0-5.069-0.001c-0.108,0-0.109,0-0.109-0.109c0-0.281,0-0.562,0-0.843c0-0.106,0.001-0.108,0.111-0.108
	c0.492,0,0.985,0,1.477,0c2.031,0,4.063,0,6.097,0c0.169,0,0.185-0.018,0.16-0.186c-0.047-0.325-0.115-0.647-0.199-0.966
	c-0.199-0.758-0.497-1.474-0.889-2.149c-0.488-0.843-1.105-1.579-1.838-2.219c-0.549-0.48-1.151-0.88-1.8-1.209
	c-0.545-0.275-1.114-0.488-1.705-0.644c-0.326-0.087-0.659-0.157-0.997-0.195c-0.114-0.015-0.23-0.009-0.345-0.026
	c-0.034,0-0.068,0-0.102,0c-0.036,0.035-0.03,0.08-0.03,0.123c0,0.446,0,0.893,0,1.339c0,0.022,0,0.044,0.002,0.065
	c0.005,0.061,0.036,0.093,0.096,0.101c0.054,0.006,0.11,0.011,0.165,0.02c0.854,0.126,1.66,0.392,2.414,0.81
	c0.721,0.398,1.355,0.905,1.901,1.525c0.5,0.568,0.9,1.199,1.2,1.895c0.05,0.116,0.05,0.116-0.079,0.116c-1.837,0-3.676,0-5.513,0
	c-0.017,0-0.035-0.001-0.05,0c-0.057,0.005-0.079-0.02-0.079-0.076c0.003-0.131,0-0.261,0.002-0.393
	c0.001-0.321,0.157-0.556,0.457-0.675c0.409-0.162,0.821-0.32,1.231-0.483c0.114-0.047,0.13-0.067,0.13-0.188
	c0-0.474,0-0.946,0-1.419c-0.002-0.212-0.107-0.354-0.312-0.411c-0.681-0.188-1.375-0.285-2.079-0.31
	c-0.211-0.007-0.421-0.004-0.631,0.009c-0.245,0.016-0.489,0.031-0.73,0.063c-0.414,0.055-0.823,0.134-1.225,0.25
	c-0.171,0.051-0.275,0.188-0.275,0.367c-0.001,0.492-0.001,0.985,0,1.477c0,0.099,0.016,0.12,0.109,0.156
	c0.198,0.078,0.396,0.155,0.597,0.233c0.224,0.089,0.45,0.174,0.675,0.266c0.242,0.1,0.389,0.284,0.418,0.542
	c0.021,0.176,0.004,0.354,0.004,0.53c0,0.043-0.018,0.063-0.062,0.063c-0.025-0.001-0.053,0-0.08,0c-1.127,0-2.253,0-3.381,0
	c-0.718,0-1.436,0-2.153,0c-0.086,0-0.09-0.008-0.059-0.087c0.085-0.211,0.186-0.416,0.295-0.615
	c0.415-0.758,0.946-1.423,1.602-1.987c0.57-0.491,1.202-0.883,1.896-1.174c0.604-0.255,1.231-0.422,1.883-0.5
	c0.094-0.012,0.116-0.037,0.116-0.133c0.002-0.468,0.002-0.936,0.002-1.403c0-0.034-0.002-0.067-0.03-0.094
	c-0.038,0-0.076,0-0.116,0c-0.109,0.02-0.222,0.014-0.33,0.026c-0.321,0.035-0.636,0.104-0.948,0.184
	c-0.649,0.167-1.272,0.407-1.87,0.718c-0.689,0.359-1.32,0.803-1.891,1.33c-0.369,0.343-0.712,0.713-1.018,1.116
	c-0.425,0.561-0.781,1.161-1.064,1.806c-0.271,0.622-0.468,1.268-0.59,1.936c-0.021,0.119-0.043,0.239-0.056,0.359
	c-0.01,0.086,0.019,0.114,0.105,0.119c0.024,0.001,0.048,0,0.072,0c0.347,0,0.693,0,1.04,0c2.165,0,4.33,0,6.496,0
	c0.14,0,0.14,0,0.14,0.137c0,0.263,0,0.523,0,0.785c0,0.139,0,0.14-0.139,0.14c-2.53,0-5.063,0-7.594,0
	c-0.033,0-0.067-0.001-0.102,0c-0.029,0.001-0.058,0.007-0.079,0.029c0,0.028,0,0.058,0,0.087c0.015,0.042,0.005,0.087,0.008,0.129
	c-0.003,0.034,0.008,0.07-0.008,0.104c0,0.045,0,0.088,0,0.132c0.013,0.014,0.007,0.032,0.008,0.049
	c0.003,0.291,0.026,0.579,0.073,0.866c0.168,1.04,0.505,2.021,1.023,2.938c0.389,0.687,0.86,1.312,1.418,1.871
	c0.173,0.175,0.353,0.34,0.539,0.498c0.625,0.531,1.311,0.965,2.058,1.304c0.587,0.267,1.196,0.466,1.827,0.595
	c0.318,0.064,0.638,0.124,0.965,0.138c0.112,0.004,0.225,0.001,0.338,0.02c0.043,0,0.087,0,0.13,0
	c0.035-0.016,0.071-0.004,0.104-0.008c0.049,0.005,0.097-0.009,0.144,0.008c0.049,0,0.097,0,0.146,0
	c0.047-0.017,0.096-0.003,0.144-0.008c0.044,0.005,0.089-0.008,0.134,0.008c0.047,0,0.096,0,0.144,0
	c0.019-0.014,0.038-0.007,0.057-0.008c0.193-0.01,0.386-0.011,0.579-0.035c1.178-0.149,2.279-0.521,3.305-1.117
	c0.828-0.481,1.558-1.085,2.189-1.807c0.45-0.516,0.836-1.074,1.154-1.681c0.399-0.757,0.682-1.557,0.843-2.399
	c0.055-0.285,0.105-0.571,0.117-0.863c0.004-0.123,0.002-0.246,0.02-0.367c0-0.054,0-0.107,0-0.161
	c-0.016-0.046-0.004-0.095-0.008-0.142c0.003-0.035-0.008-0.071,0.008-0.104C597.173,148.309,597.173,148.294,597.173,148.28z
	 M595.397,149.938c-0.339,1.377-1.014,2.558-2.045,3.532c-0.981,0.928-2.138,1.53-3.462,1.807c-0.875,0.183-1.754,0.194-2.637,0.048
	c-2.681-0.445-4.896-2.405-5.66-5.014c-0.04-0.133-0.071-0.267-0.11-0.399c-0.013-0.043-0.004-0.059,0.041-0.054
	c0.012,0.002,0.024,0,0.036,0c2,0,4.001,0.001,6-0.002c0.07,0,0.09,0.015,0.088,0.087c-0.005,0.23-0.009,0.461,0,0.69
	c0.016,0.348-0.196,0.666-0.603,0.76c-1.104,0.259-2.207,0.526-3.31,0.789c-0.193,0.046-0.295,0.176-0.295,0.377
	c-0.002,0.221,0.002,0.441-0.002,0.662c-0.002,0.067,0.021,0.077,0.081,0.077c1.64-0.002,3.276-0.002,4.916-0.002
	c1.637,0,3.273,0,4.909,0.002c0.067,0,0.09-0.013,0.09-0.086c-0.007-0.216-0.003-0.432-0.003-0.646s-0.099-0.337-0.309-0.387
	c-1.117-0.267-2.236-0.533-3.352-0.802c-0.326-0.078-0.539-0.34-0.544-0.675c-0.004-0.262,0-0.523-0.003-0.785
	c-0.001-0.05,0.017-0.065,0.062-0.06c0.008,0.002,0.015,0,0.021,0c2.008,0,4.015,0.001,6.023-0.002
	C595.398,149.855,595.413,149.867,595.397,149.938z"/>
<g>
	<g>
		<path fill-rule="evenodd" clip-rule="evenodd" fill="#005295" d="M159.173,159.625c0.583-0.123,1.191-0.091,1.775-0.04
			c0.686,0.062,1.049-0.165,1.341-0.803c0.605-1.321,1.319-2.593,1.967-3.895c0.158-0.317,0.328-0.476,0.711-0.463
			c0.948,0.03,1.897,0.01,2.834,0.01c-0.364,2.239-2.349,2.87-4.008,4.062c3.392,0,6.617,0,9.868,0
			c-0.112,0.38-0.365,0.27-0.554,0.271c-0.991,0.01-1.984,0.016-2.978-0.002c-0.361-0.005-0.516,0.013-0.414,0.473
			c0.312,1.398,0.535,2.817,0.837,4.218c0.095,0.439-0.04,0.492-0.42,0.485c-1.035-0.021-2.069-0.018-3.105-0.001
			c-0.304,0.005-0.459-0.074-0.515-0.393c-0.155-0.872-0.325-1.741-0.515-2.606c-0.06-0.271,0.056-0.383,0.26-0.49
			c0.292-0.154,0.577-0.324,0.838-0.604c-2.642,0-5.282,0-7.923,0C159.173,159.773,159.173,159.699,159.173,159.625z"/>
		<path fill-rule="evenodd" clip-rule="evenodd" fill="#005295" d="M174.741,154.689c-1.329,0.892-2.658,1.783-3.987,2.675
			c-0.141,0.095-0.283,0.169-0.464,0.168c-1.239-0.004-2.479-0.003-3.918-0.003c1.176-0.79,2.224-1.438,3.205-2.172
			c0.797-0.597,1.616-0.897,2.623-0.804c0.832,0.077,1.676,0.016,2.514,0.016C174.723,154.609,174.731,154.649,174.741,154.689z"/>
		<path fill-rule="evenodd" clip-rule="evenodd" fill="#015296" d="M164.727,160.709c-0.534,1.049-1.022,1.999-1.501,2.954
			c-0.097,0.193-0.227,0.275-0.442,0.273c-0.906-0.007-1.813-0.007-2.719,0c-0.29,0.002-0.394-0.066-0.238-0.363
			c0.448-0.857,0.887-1.719,1.316-2.585c0.111-0.224,0.262-0.287,0.499-0.283C162.632,160.716,163.621,160.709,164.727,160.709z"/>
		<path fill-rule="evenodd" clip-rule="evenodd" fill="#149CDF" d="M175.014,152.485L175.014,152.485c0,0-2.383-2.299-7.699-1.481
			c-0.259,0.02-0.515,0.052-0.767,0.109c-0.505,0.115-1.002,0.243-1.491,0.387c-6.878,1.956-9.921,6.594-9.921,6.594l0.003-0.002
			c-0.234,0.325-0.446,0.666-0.621,1.031c-0.298,0.623-0.217,0.726,0.449,0.729c0.885,0.004,1.77-0.016,2.654,0.014
			c0.211,0.007,0.372-0.006,0.476-0.206c0.132-0.477,0.422-0.871,0.701-1.262c1.755-2.452,4.156-4.041,6.934-5.098
			c2.305-0.876,4.672-1.332,7.124-0.73c1.823,0.447,3.185,1.434,3.579,3.404c0.055,0.271,0.063,0.554,0.109,0.993
			C176.871,155.132,176.301,153.554,175.014,152.485z"/>
		<path fill-rule="evenodd" clip-rule="evenodd" fill="#0093DD" d="M178.266,161.29c0.06-0.069,0.116-0.136,0.172-0.201
			c0.034-0.042,0.069-0.085,0.104-0.128c0.051-0.063,0.1-0.124,0.146-0.184c0.023-0.03,0.045-0.061,0.068-0.091
			c0.518-0.69,0.736-1.188,0.829-1.479c0.022-0.06,0.047-0.118,0.067-0.178c0-0.043,0-0.085,0-0.127
			c-0.928-0.004-1.858,0.04-2.783-0.025c-0.658-0.046-1.045,0.153-1.298,0.771c-0.157,0.382-0.433,0.724-0.693,1.053
			c-2.181,2.748-5.063,4.401-8.408,5.288c-1.983,0.525-3.998,0.683-5.981-0.003c-1.786-0.618-2.906-1.818-3.044-3.784
			c-0.035-0.059-0.071-0.062-0.109-0.003c-0.247,1.76,0.519,3.342,2.048,4.376c0.099,0.07,0.224,0.15,0.384,0.238
			c0.21,0.12,0.432,0.231,0.666,0.333c1.276,0.583,3.84,0.974,6.81,0.487c0.061-0.009,0.12-0.019,0.181-0.03
			c2.167-0.379,4.536-1.226,6.774-2.806c0.021-0.015,0.042-0.029,0.063-0.045c1.197-0.784,2.316-1.704,3.354-2.767
			c0.131-0.132,0.254-0.258,0.368-0.382c0,0,0-0.001,0.001-0.001c0-0.001,0.001-0.001,0.002-0.001
			c0.081-0.089,0.159-0.175,0.233-0.259C178.233,161.326,178.25,161.308,178.266,161.29z"/>
	</g>
	<path fill="#09097F" d="M176.763,182.451c-0.041-0.043-0.094-0.032-0.146-0.032c-0.971-0.001-1.94,0-2.912,0
		c-1.89,0-3.78,0-5.669-0.001c-0.121,0-0.122,0-0.122-0.123c0-0.313,0-0.628,0-0.942c0-0.119,0.002-0.121,0.125-0.121
		c0.551,0,1.102,0,1.651,0c2.271,0,4.543,0,6.816,0c0.19,0,0.206-0.02,0.179-0.207c-0.051-0.364-0.128-0.725-0.222-1.08
		c-0.223-0.847-0.556-1.648-0.994-2.404c-0.546-0.941-1.236-1.765-2.055-2.48c-0.614-0.537-1.287-0.984-2.013-1.352
		c-0.608-0.309-1.246-0.546-1.906-0.72c-0.366-0.097-0.736-0.176-1.114-0.219c-0.129-0.016-0.258-0.009-0.387-0.029
		c-0.038,0-0.075,0-0.114,0c-0.04,0.039-0.032,0.09-0.032,0.138c0,0.5,0,0.998,0,1.497c0,0.025,0,0.049,0.002,0.073
		c0.005,0.067,0.04,0.104,0.106,0.111c0.061,0.008,0.124,0.013,0.186,0.022c0.953,0.141,1.854,0.438,2.698,0.905
		c0.807,0.445,1.517,1.013,2.126,1.706c0.56,0.636,1.007,1.342,1.344,2.119c0.055,0.13,0.055,0.13-0.09,0.13
		c-2.054,0-4.109,0-6.164,0c-0.019,0-0.039-0.002-0.056,0c-0.064,0.005-0.089-0.022-0.088-0.086c0.002-0.146,0-0.292,0.001-0.438
		c0.001-0.359,0.176-0.621,0.511-0.755c0.458-0.181,0.919-0.358,1.378-0.541c0.128-0.052,0.145-0.075,0.145-0.21
		c0-0.53,0.001-1.059,0-1.587c-0.001-0.237-0.119-0.396-0.348-0.46c-0.762-0.21-1.537-0.318-2.325-0.347
		c-0.235-0.007-0.471-0.004-0.705,0.011c-0.274,0.018-0.548,0.035-0.816,0.07c-0.464,0.061-0.921,0.148-1.37,0.279
		c-0.191,0.057-0.308,0.21-0.308,0.41c-0.002,0.551-0.002,1.102,0,1.651c0,0.11,0.018,0.134,0.122,0.175
		c0.222,0.087,0.443,0.173,0.666,0.261c0.252,0.1,0.505,0.194,0.756,0.297c0.271,0.111,0.435,0.317,0.468,0.606
		c0.022,0.196,0.004,0.396,0.004,0.593c0,0.048-0.021,0.07-0.069,0.07c-0.028-0.001-0.059,0-0.09,0c-1.26,0-2.519,0-3.78,0
		c-0.802,0-1.604,0-2.407,0c-0.096,0-0.101-0.009-0.065-0.098c0.095-0.236,0.208-0.465,0.33-0.688
		c0.464-0.849,1.058-1.592,1.79-2.224c0.638-0.549,1.345-0.986,2.12-1.313c0.676-0.283,1.378-0.471,2.106-0.559
		c0.104-0.013,0.13-0.041,0.13-0.148c0.002-0.522,0.002-1.046,0.002-1.569c0-0.038-0.002-0.075-0.033-0.104
		c-0.043,0-0.086,0-0.131,0c-0.122,0.021-0.246,0.015-0.369,0.029c-0.359,0.039-0.711,0.116-1.06,0.205
		c-0.728,0.188-1.423,0.456-2.091,0.803c-0.771,0.402-1.477,0.898-2.114,1.488c-0.413,0.383-0.796,0.797-1.138,1.247
		c-0.476,0.627-0.875,1.299-1.19,2.02c-0.304,0.695-0.522,1.418-0.66,2.165c-0.023,0.133-0.048,0.267-0.063,0.4
		c-0.01,0.098,0.021,0.129,0.118,0.134c0.027,0.001,0.054,0,0.082,0c0.387,0,0.773,0,1.162,0c2.421,0,4.842,0,7.264,0
		c0.156,0,0.156,0,0.156,0.153c0,0.294,0,0.585,0,0.878c0,0.155,0,0.156-0.154,0.156c-2.83,0-5.661,0-8.491,0
		c-0.038,0-0.076-0.001-0.114,0c-0.033,0.001-0.064,0.007-0.089,0.032c0,0.032,0,0.065,0,0.098c0.017,0.047,0.005,0.097,0.009,0.144
		c-0.004,0.039,0.009,0.078-0.009,0.116c0,0.05,0,0.098,0,0.147c0.014,0.016,0.008,0.036,0.009,0.054
		c0.003,0.326,0.029,0.648,0.082,0.97c0.188,1.162,0.564,2.259,1.146,3.284c0.434,0.769,0.961,1.467,1.585,2.093
		c0.192,0.195,0.394,0.38,0.603,0.557c0.698,0.595,1.466,1.078,2.3,1.457c0.657,0.299,1.338,0.521,2.044,0.666
		c0.356,0.072,0.714,0.138,1.079,0.153c0.125,0.005,0.251,0.002,0.377,0.022c0.049,0,0.098,0,0.146,0
		c0.038-0.018,0.079-0.004,0.117-0.009c0.054,0.005,0.107-0.01,0.159,0.009c0.055,0,0.109,0,0.163,0
		c0.053-0.019,0.107-0.004,0.161-0.009c0.05,0.005,0.1-0.009,0.148,0.009c0.053,0,0.107,0,0.162,0
		c0.02-0.016,0.041-0.008,0.063-0.009c0.217-0.011,0.432-0.012,0.648-0.039c1.315-0.167,2.548-0.583,3.694-1.25
		c0.926-0.538,1.742-1.213,2.447-2.021c0.504-0.575,0.936-1.201,1.291-1.879c0.447-0.847,0.764-1.741,0.943-2.683
		c0.062-0.319,0.118-0.64,0.131-0.966c0.005-0.138,0.002-0.274,0.021-0.41c0-0.06,0-0.12,0-0.18
		c-0.018-0.052-0.004-0.106-0.008-0.159c0.003-0.039-0.009-0.079,0.008-0.117C176.763,182.483,176.763,182.467,176.763,182.451z
		 M174.777,184.305c-0.378,1.539-1.134,2.86-2.286,3.95c-1.099,1.037-2.391,1.711-3.87,2.02c-0.979,0.204-1.962,0.218-2.949,0.055
		c-2.998-0.499-5.475-2.69-6.33-5.607c-0.044-0.148-0.079-0.298-0.123-0.446c-0.014-0.049-0.004-0.065,0.046-0.061
		c0.014,0.002,0.027,0,0.041,0c2.236,0,4.473,0.002,6.71-0.002c0.077,0,0.1,0.017,0.097,0.097c-0.005,0.258-0.01,0.516,0,0.772
		c0.018,0.39-0.22,0.745-0.673,0.85c-1.234,0.29-2.469,0.588-3.701,0.882c-0.216,0.052-0.33,0.197-0.33,0.422
		c-0.002,0.246,0.003,0.494-0.002,0.74c-0.002,0.075,0.022,0.087,0.09,0.087c1.833-0.002,3.665-0.002,5.498-0.002
		c1.83,0,3.661,0,5.49,0.002c0.075,0,0.1-0.015,0.099-0.096c-0.006-0.241-0.002-0.483-0.002-0.724s-0.111-0.377-0.346-0.433
		c-1.249-0.298-2.5-0.597-3.748-0.896c-0.365-0.087-0.603-0.38-0.608-0.754c-0.004-0.293,0.001-0.586-0.003-0.879
		c-0.001-0.055,0.02-0.073,0.069-0.066c0.009,0.002,0.017,0,0.024,0c2.245,0,4.489,0.002,6.734-0.002
		C174.779,184.213,174.796,184.227,174.777,184.305z"/>
</g>
<path fill="none" d="M575.56,172.105c0,0,53.02-3.377,74.788,9.144c21.77,12.521,74.504,98.108,74.504,98.108"/>
<text transform="matrix(0.9845 0.1755 -0.1755 0.9845 621.877 173.188)"><tspan x="0" y="0" fill="#656A6C" font-family="'MicrosoftJhengHeiBold'" font-size="15">凱</tspan><tspan x="14.621" y="-0.191" fill="#656A6C" font-family="'MicrosoftJhengHeiBold'" font-size="15" rotate="9.667">旋</tspan><tspan x="28.676" y="1.934" fill="#656A6C" font-family="'MicrosoftJhengHeiBold'" font-size="15" rotate="30.613">一</tspan><tspan x="41.21" y="9.556" fill="#656A6C" font-family="'MicrosoftJhengHeiBold'" font-size="15" rotate="38.551">路</tspan></text>
<path fill="none" stroke="#232439" stroke-miterlimit="10" d="M565.038,123.381"/>
<g>
	<path fill="#3878C7" d="M567.825,108.081c0,0,0.488,0.1,1.402,0.285c0.498,0.094,0.929,0.208,1.483,0.343
		c0.275,0.067,0.57,0.14,0.886,0.217c0.295,0.077,0.547,0.159,0.848,0.247c0.292,0.086,0.6,0.178,0.924,0.273
		c0.161,0.048,0.325,0.098,0.495,0.147c0.167,0.05,0.295,0.102,0.448,0.153c0.288,0.105,0.626,0.214,0.906,0.327
		c0.279,0.112,0.569,0.229,0.866,0.351c0.285,0.121,0.525,0.246,0.802,0.374c0.285,0.129,0.522,0.261,0.767,0.396
		c0.466,0.271,0.892,0.557,1.244,0.854c0.691,0.596,1.127,1.24,1.155,1.923c0.01,0.682-0.027,1.401-0.104,2.145
		c-0.16,1.488-0.51,3.076-1.105,4.663c-0.296,0.794-0.653,1.587-1.06,2.369c-0.415,0.781-0.864,1.549-1.382,2.294
		c-0.507,0.743-1.056,1.463-1.644,2.145c-0.283,0.342-0.591,0.673-0.89,0.994c-0.318,0.32-0.624,0.631-0.918,0.929
		c-0.631,0.595-1.218,1.141-1.823,1.624c-0.286,0.242-0.566,0.468-0.852,0.678c-0.279,0.209-0.519,0.401-0.776,0.574
		c-0.484,0.348-0.904,0.621-1.199,0.807c-0.309,0.186-0.474,0.285-0.474,0.285h-0.544c0,0-0.164-0.1-0.474-0.285
		c-0.294-0.186-0.714-0.459-1.198-0.807c-0.258-0.173-0.497-0.365-0.777-0.574c-0.285-0.21-0.564-0.436-0.851-0.678
		c-0.605-0.483-1.192-1.029-1.823-1.624c-0.294-0.298-0.6-0.608-0.918-0.929c-0.299-0.321-0.606-0.652-0.89-0.994
		c-0.588-0.682-1.137-1.401-1.644-2.145c-0.519-0.745-0.967-1.513-1.382-2.294c-0.406-0.782-0.764-1.575-1.06-2.369
		c-0.597-1.587-0.946-3.175-1.105-4.663c-0.077-0.743-0.115-1.463-0.104-2.145c0.028-0.683,0.464-1.327,1.155-1.923
		c0.353-0.297,0.778-0.582,1.244-0.854c0.243-0.136,0.481-0.268,0.766-0.396c0.277-0.128,0.517-0.253,0.802-0.374
		c0.298-0.121,0.588-0.238,0.867-0.351c0.279-0.113,0.618-0.222,0.905-0.327c0.155-0.052,0.282-0.104,0.449-0.153
		c0.169-0.05,0.334-0.1,0.496-0.147c0.323-0.096,0.631-0.188,0.923-0.273c0.301-0.088,0.553-0.17,0.848-0.247
		c0.314-0.077,0.61-0.149,0.885-0.217c0.555-0.135,0.985-0.249,1.484-0.343c0.914-0.186,1.401-0.285,1.401-0.285H567.825z"/>
	<text transform="matrix(1 0 0 1 564.499 123.9727)" fill="#FFFFFF" font-family="'MicrosoftJhengHeiBold'" font-size="10.1574">1</text>
</g>
<line fill="none" x1="559.903" y1="8.667" x2="559.903" y2="89.558"/>
<text transform="matrix(-4.371139e-008 1 -1 -4.371139e-008 559.874 17.3936)"><tspan x="0" y="0" fill="#604C3F" font-family="'MicrosoftJhengHeiBold'" font-size="18">往</tspan><tspan x="18.018" y="0" fill="#604C3F" font-family="'MicrosoftJhengHeiBold'" font-size="18">台</tspan><tspan x="36.004" y="0" fill="#604C3F" font-family="'MicrosoftJhengHeiBold'" font-size="18">南</tspan></text>
<line fill="none" x1="645.449" y1="123.38" x2="841.534" y2="123.38"/>
<text transform="matrix(1 0 0 1 699.2041 123.3804)"><tspan x="0" y="0" fill="#604C3F" font-family="'MicrosoftJhengHeiBold'" font-size="18">往</tspan><tspan x="17.997" y="0" fill="#604C3F" font-family="'MicrosoftJhengHeiBold'" font-size="18">屏</tspan><tspan x="36.013" y="0" fill="#604C3F" font-family="'MicrosoftJhengHeiBold'" font-size="18">東</tspan><tspan x="54.01" y="0" fill="#604C3F" font-family="'MicrosoftJhengHeiBold'" font-size="18"> </tspan><tspan x="58.509" y="0" fill="#604C3F" font-family="'MicrosoftJhengHeiBold'" font-size="18"> </tspan></text>
<polyline fill="none" points="692.79,118.523 564.526,118.523 564.526,80.797 "/>
<g>
	<path fill-rule="evenodd" clip-rule="evenodd" fill="#005295" d="M194.408,492.032c0.691-0.146,1.412-0.108,2.105-0.048
		c0.813,0.072,1.244-0.196,1.591-0.952c0.717-1.566,1.563-3.073,2.332-4.618c0.187-0.376,0.389-0.563,0.843-0.549
		c1.124,0.036,2.249,0.012,3.36,0.012c-0.432,2.656-2.785,3.404-4.753,4.816c4.022,0,7.847,0,11.702,0
		c-0.134,0.451-0.434,0.319-0.656,0.321c-1.177,0.012-2.354,0.019-3.531-0.001c-0.429-0.007-0.611,0.014-0.491,0.56
		c0.37,1.658,0.634,3.341,0.992,5.002c0.112,0.521-0.048,0.583-0.497,0.575c-1.228-0.024-2.455-0.021-3.683-0.001
		c-0.36,0.006-0.545-0.089-0.611-0.466c-0.184-1.034-0.385-2.065-0.609-3.091c-0.07-0.321,0.065-0.453,0.309-0.581
		c0.346-0.183,0.683-0.384,0.992-0.716c-3.132,0-6.263,0-9.395,0C194.408,492.208,194.408,492.12,194.408,492.032z"/>
	<path fill-rule="evenodd" clip-rule="evenodd" fill="#005295" d="M212.869,486.18c-1.576,1.057-3.152,2.113-4.728,3.172
		c-0.168,0.112-0.336,0.2-0.551,0.199c-1.469-0.005-2.939-0.004-4.646-0.004c1.396-0.937,2.638-1.704,3.802-2.576
		c0.944-0.707,1.916-1.063,3.11-0.953c0.986,0.092,1.986,0.02,2.98,0.02C212.848,486.085,212.858,486.133,212.869,486.18z"/>
	<path fill-rule="evenodd" clip-rule="evenodd" fill="#015296" d="M200.995,493.317c-0.634,1.243-1.213,2.37-1.78,3.502
		c-0.115,0.23-0.269,0.327-0.525,0.326c-1.075-0.009-2.149-0.009-3.224-0.001c-0.344,0.002-0.466-0.079-0.282-0.431
		c0.532-1.017,1.052-2.038,1.561-3.065c0.131-0.265,0.311-0.34,0.592-0.336C198.51,493.325,199.684,493.317,200.995,493.317z"/>
	<path fill-rule="evenodd" clip-rule="evenodd" fill="#149CDF" d="M213.192,483.565L213.192,483.565c0.001,0-2.825-2.726-9.13-1.757
		c-0.306,0.023-0.609,0.063-0.908,0.13c-0.6,0.137-1.188,0.289-1.769,0.459c-8.156,2.319-11.765,7.818-11.765,7.818l0.004-0.002
		c-0.278,0.386-0.529,0.789-0.736,1.224c-0.354,0.738-0.258,0.86,0.531,0.863c1.05,0.005,2.1-0.02,3.148,0.016
		c0.25,0.009,0.442-0.007,0.564-0.243c0.156-0.566,0.5-1.033,0.831-1.497c2.081-2.908,4.928-4.791,8.223-6.044
		c2.732-1.039,5.539-1.58,8.446-0.867c2.162,0.53,3.776,1.7,4.245,4.037c0.064,0.322,0.074,0.656,0.129,1.178
		C215.395,486.704,214.719,484.832,213.192,483.565z"/>
	<path fill-rule="evenodd" clip-rule="evenodd" fill="#0093DD" d="M217.049,494.006c0.07-0.081,0.139-0.161,0.203-0.238
		c0.041-0.05,0.083-0.101,0.124-0.151c0.06-0.074,0.117-0.147,0.173-0.218c0.027-0.036,0.054-0.072,0.081-0.108
		c0.613-0.818,0.873-1.408,0.983-1.753c0.026-0.07,0.056-0.139,0.08-0.211c0-0.05,0-0.1,0-0.15c-1.101-0.004-2.205,0.048-3.3-0.029
		c-0.781-0.056-1.24,0.182-1.54,0.913c-0.186,0.453-0.513,0.857-0.821,1.248c-2.586,3.259-6.004,5.219-9.971,6.271
		c-2.353,0.623-4.741,0.811-7.094-0.004c-2.118-0.732-3.445-2.155-3.609-4.486c-0.041-0.068-0.085-0.073-0.129-0.004
		c-0.294,2.087,0.614,3.964,2.428,5.189c0.117,0.084,0.266,0.178,0.455,0.282c0.25,0.143,0.513,0.274,0.789,0.395
		c1.514,0.692,4.555,1.155,8.076,0.578c0.071-0.01,0.143-0.022,0.214-0.035c2.569-0.45,5.379-1.454,8.033-3.327
		c0.024-0.018,0.05-0.035,0.075-0.053c1.42-0.93,2.746-2.021,3.977-3.281c0.155-0.156,0.301-0.306,0.437-0.453
		c0,0,0-0.001,0.001-0.001c0,0,0.001-0.001,0.002-0.001c0.097-0.105,0.189-0.207,0.277-0.307
		C217.011,494.049,217.03,494.027,217.049,494.006z"/>
</g>
<line fill="none" x1="318.419" y1="97.898" x2="561.712" y2="97.898"/>
<text transform="matrix(1 0 0 1 405.5635 97.8984)"><tspan x="0" y="0" fill="#656A6C" font-family="'MicrosoftJhengHeiBold'" font-size="15">九</tspan><tspan x="15.005" y="0" fill="#656A6C" font-family="'MicrosoftJhengHeiBold'" font-size="15">如</tspan><tspan x="30.021" y="0" fill="#656A6C" font-family="'MicrosoftJhengHeiBold'" font-size="15">二</tspan><tspan x="45.016" y="0" fill="#656A6C" font-family="'MicrosoftJhengHeiBold'" font-size="15">路</tspan></text>
<g>
	
		<ellipse transform="matrix(0.9572 -0.2894 0.2894 0.9572 -140.7085 42.5351)" fill="#F29D09" cx="73.5" cy="497.146" rx="36.281" ry="18"/>
	
		<text transform="matrix(0.9572 -0.2894 0.2894 0.9572 46.1489 510.3418)" fill="#207E89" font-family="'MicrosoftJhengHeiBold'" font-size="15">往西子灣</text>
</g>
<g>
	<path fill="#F29D09" d="M524.889,529.708c0,9.738-7.524,17.633-16.806,17.633h-94.676c-9.281,0-16.806-7.895-16.806-17.633l0,0
		c0-9.738,7.524-17.633,16.806-17.633h94.676C517.364,512.075,524.889,519.97,524.889,529.708L524.889,529.708z"/>
	<text transform="matrix(1 0 0 1 408.3105 535.0742)" fill="#FFFFFF" font-family="'MicrosoftJhengHeiBold'" font-size="15">捷運信義國小站</text>
</g>
<g>
	<path fill="#F29D09" d="M694.895,529.708c0,9.738-5.734,17.633-12.808,17.633h-72.154c-7.073,0-12.808-7.895-12.808-17.633l0,0
		c0-9.738,5.734-17.633,12.808-17.633h72.154C689.16,512.075,694.895,519.97,694.895,529.708L694.895,529.708z"/>
	<text transform="matrix(1 0 0 1 608.5098 535.0742)" fill="#FFFFFF" font-family="'MicrosoftJhengHeiBold'" font-size="15">文化中心站</text>
</g>
<g>
	<g>
		<path fill="#FF0000" d="M236.842,507.639c-7.073,0-12.808,7.895-12.808,17.633s5.734,17.633,12.808,17.633h36.077v-35.266H236.842
			z"/>
		<path fill="#F29D09" d="M308.996,507.639h-36.077v35.266h36.077c7.073,0,12.808-7.895,12.808-17.633
			S316.069,507.639,308.996,507.639z"/>
	</g>
	<text transform="matrix(1 0 0 1 250.4189 529.9883)" fill="#FFFFFF" font-family="'MicrosoftJhengHeiBold'" font-size="15">美麗島</text>
</g>
<g>
	<ellipse fill="#FF0000" cx="201.144" cy="100.523" rx="31.238" ry="18"/>
	<text transform="matrix(1 0 0 1 178.6436 105.2402)" fill="#EBEBEB" font-family="'MicrosoftJhengHeiBold'" font-size="15">往岡山</text>
</g>
<g>
	<ellipse fill="#FF0000" cx="201.002" cy="572.48" rx="31.238" ry="18"/>
	<text transform="matrix(1 0 0 1 178.502 577.1973)" fill="#EBEBEB" font-family="'MicrosoftJhengHeiBold'" font-size="15">往小港</text>
</g>
</svg>
