<?xml version="1.0" encoding="utf-8"?>
<!-- Generator: Adobe Illustrator 16.0.0, SVG Export Plug-In . SVG Version: 6.00 Build 0)  -->
<!DOCTYPE svg PUBLIC "-//W3C//DTD SVG 1.1//EN" "http://www.w3.org/Graphics/SVG/1.1/DTD/svg11.dtd">
<svg version="1.1" id="圖層_1" xmlns="http://www.w3.org/2000/svg" xmlns:xlink="http://www.w3.org/1999/xlink" x="0px" y="0px"
	 width="800px" height="600px" viewBox="0 0 800 600" enable-background="new 0 0 800 600" xml:space="preserve">
<line fill="none" stroke="#52525B" stroke-width="25" stroke-miterlimit="10" x1="565.038" y1="129.89" x2="565.038" y2="555.264"/>
<g>
	
		<line fill="none" stroke="#52525B" stroke-width="25" stroke-miterlimit="10" x1="561.712" y1="118.523" x2="318.419" y2="118.523"/>
</g>
<g>
	<polyline fill="none" stroke="#52525B" stroke-width="25" stroke-miterlimit="10" points="692.79,118.523 565.038,118.523 
		565.038,77.273 	"/>
	<g>
		<polyline fill="none" stroke="#FFFFFF" stroke-width="3" stroke-miterlimit="10" points="686.332,118.523 565.038,118.523 
			565.038,83.731 		"/>
		<g>
			<polygon fill="#FFFFFF" points="685.019,114.036 692.79,118.523 685.019,123.011 			"/>
		</g>
		<g>
			<polygon fill="#FFFFFF" points="569.525,85.045 565.038,77.273 560.551,85.045 			"/>
		</g>
	</g>
</g>
<g>
	
		<line fill="none" stroke="#52525B" stroke-width="25" stroke-miterlimit="10" x1="49.688" y1="225.523" x2="612.052" y2="225.523"/>
</g>
<line fill="none" x1="115.055" y1="472.36" x2="692.001" y2="472.36"/>
<text transform="matrix(1 0 0 1 302.1602 472.4143)" fill="#656A6C" font-family="'MicrosoftJhengHeiBold'" font-size="15">中</text>
<text transform="matrix(1 0 0 1 317.1494 472.4143)" fill="#656A6C" font-family="'MicrosoftJhengHeiBold'" font-size="15">正</text>
<text transform="matrix(1 0 0 1 332.166 472.4143)" fill="#656A6C" font-family="'MicrosoftJhengHeiBold'" font-size="15">路</text>
<text transform="matrix(1 0 0 1 347.1641 472.4143)" fill="#656A6C" font-family="'MicrosoftJhengHeiBold'" font-size="15">三</text>
<text transform="matrix(1 0 0 1 362.1802 472.4143)" fill="#656A6C" font-family="'MicrosoftJhengHeiBold'" font-size="15">路</text>
<line fill="none" x1="159.755" y1="206.19" x2="736.7" y2="206.19"/>
<text transform="matrix(1 0 0 1 346.8604 206.2434)" fill="#656A6C" font-family="'MicrosoftJhengHeiBold'" font-size="15">建</text>
<text transform="matrix(1 0 0 1 361.8496 206.2434)" fill="#656A6C" font-family="'MicrosoftJhengHeiBold'" font-size="15">國</text>
<text transform="matrix(1 0 0 1 376.8672 206.2434)" fill="#656A6C" font-family="'MicrosoftJhengHeiBold'" font-size="15">二</text>
<text transform="matrix(1 0 0 1 391.8652 206.2434)" fill="#656A6C" font-family="'MicrosoftJhengHeiBold'" font-size="15">路</text>
<path fill="#52525B" d="M121.727,147.8c0.603,0,1.09-0.487,1.09-1.09v-2.185c0-0.603-0.487-1.09-1.09-1.09l-18.53-9.001
	l-18.529,9.001c-0.603,0-1.09,0.487-1.09,1.09v2.185c0,0.603,0.487,1.09,1.09,1.09h1.088v26.16h-1.088
	c-0.603,0-1.09,0.482-1.09,1.09v2.181c0,0.604,0.487,1.09,1.09,1.09h16.35v-5.445c0-0.604,0.49-1.096,1.09-1.096h2.18
	c0.6,0,1.09,0.491,1.09,1.096v5.445h16.351c0.603,0,1.09-0.483,1.09-1.09v-2.181c0-0.604-0.487-1.09-1.09-1.09h-1.09V147.8H121.727z
	 M101.017,150.852c0-0.436,0.437-0.871,0.872-0.871h2.616c0.436,0,0.871,0.438,0.871,0.871v2.616c0,0.437-0.436,0.872-0.871,0.872
	h-2.616c-0.436,0-0.872-0.438-0.872-0.872V150.852L101.017,150.852z M101.017,157.392c0-0.436,0.437-0.871,0.872-0.871h2.616
	c0.436,0,0.871,0.438,0.871,0.871v2.616c0,0.437-0.436,0.872-0.871,0.872h-2.616c-0.436,0-0.872-0.438-0.872-0.872V157.392
	L101.017,157.392z M92.297,150.852c0-0.436,0.437-0.871,0.872-0.871h2.615c0.437,0,0.873,0.438,0.873,0.871v2.616
	c0,0.437-0.437,0.872-0.873,0.872h-2.615c-0.436,0-0.872-0.438-0.872-0.872V150.852L92.297,150.852z M95.784,160.88h-2.615
	c-0.436,0-0.872-0.438-0.872-0.872v-2.616c0-0.436,0.437-0.871,0.872-0.871h2.615c0.437,0,0.873,0.438,0.873,0.871v2.616
	C96.657,160.444,96.221,160.88,95.784,160.88L95.784,160.88z M96.657,169.6c0-3.611,2.927-6.54,6.539-6.54
	c3.612,0,6.54,2.929,6.54,6.54H96.657z M114.097,160.008c0,0.437-0.436,0.872-0.872,0.872h-2.616c-0.436,0-0.872-0.438-0.872-0.872
	v-2.616c0-0.436,0.437-0.871,0.872-0.871h2.616c0.437,0,0.872,0.438,0.872,0.871V160.008z M114.097,153.468
	c0,0.437-0.436,0.872-0.872,0.872h-2.616c-0.436,0-0.872-0.438-0.872-0.872v-2.616c0-0.436,0.437-0.871,0.872-0.871h2.616
	c0.437,0,0.872,0.438,0.872,0.871V153.468z"/>
<text transform="matrix(1 0 0 1 65.7041 201.384)" fill="#656A6C" font-family="'MicrosoftJhengHeiBold'" font-size="15">高雄火車站</text>
<g>
	
		<line fill="none" stroke="#52525B" stroke-width="25" stroke-miterlimit="10" x1="201.137" y1="489.975" x2="59.194" y2="546.568"/>
	<g>
		<g>
			<path fill="#F29D09" d="M201.137,489.975c0,0-2.104,0.914-5.785,2.515c-3.695,1.565-8.953,3.855-15.301,6.508
				c-6.341,2.667-13.756,5.738-21.716,8.988c-3.983,1.618-8.099,3.29-12.281,4.989c-4.188,1.683-8.444,3.392-12.699,5.101
				c-4.264,1.688-8.528,3.376-12.725,5.037c-4.204,1.646-8.341,3.267-12.344,4.83c-8.012,3.119-15.506,5.991-21.943,8.419
				c-6.431,2.443-11.823,4.397-15.582,5.807c-3.773,1.369-5.929,2.151-5.929,2.151s2.104-0.915,5.785-2.516
				c3.695-1.566,8.952-3.858,15.3-6.509c6.341-2.668,13.756-5.739,21.716-8.988c3.983-1.618,8.099-3.29,12.281-4.988
				c4.189-1.682,8.444-3.391,12.699-5.1c4.264-1.688,8.528-3.375,12.725-5.036c4.204-1.645,8.341-3.263,12.345-4.829
				c8.013-3.118,15.506-5.991,21.943-8.419c6.431-2.442,11.822-4.396,15.581-5.805C198.981,490.759,201.137,489.975,201.137,489.975
				z"/>
		</g>
		<g>
			<g>
				<circle fill="#FFFFFF" cx="65.13" cy="544.202" r="5.64"/>
				<path fill="#F29D09" d="M62.763,538.267c3.272-1.305,6.997,0.297,8.302,3.569c1.305,3.271-0.296,6.991-3.569,8.301
					c-3.272,1.306-6.997-0.296-8.302-3.568C57.889,543.297,59.491,539.571,62.763,538.267S59.491,539.571,62.763,538.267z
					 M66.94,548.74c2.505-0.999,3.73-3.848,2.731-6.354c-0.999-2.505-3.848-3.729-6.353-2.73c-2.505,0.999-3.73,3.853-2.731,6.354
					S64.436,549.74,66.94,548.74C69.445,547.74,64.436,549.74,66.94,548.74z"/>
			</g>
		</g>
	</g>
</g>
<path fill="none" stroke="#FFFFFF" stroke-width="3" stroke-linecap="round" stroke-miterlimit="10" stroke-dasharray="12,35" d="
	M699.31,492.439"/>
<line fill="none" x1="584.227" y1="112.084" x2="584.227" y2="535.271"/>
<text transform="matrix(-4.371139e-008 1 -1 -4.371139e-008 584.0664 262.031)" fill="#656A6C" font-family="'MicrosoftJhengHeiBold'" font-size="15">民</text>
<text transform="matrix(-4.371139e-008 1 -1 -4.371139e-008 584.0664 277.033)" fill="#656A6C" font-family="'MicrosoftJhengHeiBold'" font-size="15">族</text>
<text transform="matrix(-4.371139e-008 1 -1 -4.371139e-008 584.0664 292.0486)" fill="#656A6C" font-family="'MicrosoftJhengHeiBold'" font-size="15">二</text>
<text transform="matrix(-4.371139e-008 1 -1 -4.371139e-008 584.0664 307.0364)" fill="#656A6C" font-family="'MicrosoftJhengHeiBold'" font-size="15">路</text>
<g>
	
		<line fill="none" stroke="#52525B" stroke-width="25" stroke-miterlimit="10" x1="201.137" y1="77.273" x2="201.137" y2="555.263"/>
	<g>
		<g>
			<path fill="#FF0000" d="M201.137,83.718c0,0,0.07,7.261,0.194,19.967c0.088,12.707,0.215,30.858,0.367,52.641
				c0.089,21.78,0.194,47.192,0.306,74.423c0.042,27.228,0.087,56.268,0.133,85.313c-0.045,29.045-0.09,58.088-0.131,85.312
				c-0.112,27.229-0.216,52.642-0.305,74.428c-0.152,21.777-0.279,39.932-0.368,52.638c-0.124,12.706-0.195,19.968-0.195,19.968
				s-0.071-7.262-0.195-19.968c-0.089-12.705-0.216-30.858-0.368-52.638c-0.089-21.783-0.193-47.195-0.305-74.428
				c-0.042-27.225-0.086-56.267-0.131-85.313c0.045-29.043,0.091-58.083,0.133-85.311c0.112-27.229,0.216-52.641,0.306-74.423
				c0.152-21.782,0.278-39.934,0.367-52.641C201.067,90.978,201.137,83.718,201.137,83.718z"/>
		</g>
		<g>
			<g>
				<ellipse fill="#FFFFFF" cx="201.137" cy="84.056" rx="5.301" ry="5.987"/>
				<path fill="#FF0000" d="M195.13,84.056c0,3.74,2.695,6.784,6.006,6.784c3.311,0,6.006-3.044,6.006-6.784
					c0-3.74-2.695-6.784-6.006-6.784C197.825,77.273,195.13,80.317,195.13,84.056C195.13,87.796,195.13,80.317,195.13,84.056z
					 M205.733,84.056c0,2.863-2.061,5.191-4.596,5.191c-2.535,0-4.596-2.329-4.596-5.191c0-2.864,2.061-5.191,4.596-5.191
					C203.672,78.865,205.733,81.193,205.733,84.056C205.733,86.92,205.733,81.193,205.733,84.056z"/>
			</g>
		</g>
		<g>
			<g>
				<ellipse fill="#FFFFFF" cx="201.137" cy="548.044" rx="5.64" ry="6.37"/>
				<path fill="#FF0000" d="M194.747,548.047c0-3.979,2.867-7.223,6.39-7.223c3.523,0,6.39,3.238,6.39,7.223
					c0,3.977-2.867,7.217-6.39,7.217C197.614,555.264,194.747,552.022,194.747,548.047
					C194.747,544.067,194.747,552.022,194.747,548.047z M206.026,548.047c0-3.046-2.193-5.528-4.89-5.528
					c-2.697,0-4.89,2.478-4.89,5.528c0,3.05,2.193,5.522,4.89,5.522C203.833,553.57,206.026,551.092,206.026,548.047
					C206.026,545.001,206.026,551.092,206.026,548.047z"/>
			</g>
		</g>
	</g>
</g>
<text transform="matrix(1 0 0 1 458.3682 355.7756)" font-family="'MicrosoftJhengHeiBold'" font-size="18">199號</text>
<line fill="none" x1="-41.313" y1="355.775" x2="535.633" y2="355.775"/>
<text transform="matrix(1 0 0 1 281.1436 355.3469)" font-family="'MicrosoftJhengHeiBold'" font-size="18">七</text>
<text transform="matrix(1 0 0 1 299.1626 355.3469)" font-family="'MicrosoftJhengHeiBold'" font-size="18">賢</text>
<text transform="matrix(1 0 0 1 317.1514 355.3469)" font-family="'MicrosoftJhengHeiBold'" font-size="18">路</text>
<text transform="matrix(1 0 0 1 335.1636 355.3469)" font-family="'MicrosoftJhengHeiBold'" font-size="18">一</text>
<text transform="matrix(1 0 0 1 353.1553 355.3469)" font-family="'MicrosoftJhengHeiBold'" font-size="18">路</text>
<g>
	
		<polyline fill="none" stroke="#52525B" stroke-width="25" stroke-linecap="round" stroke-linejoin="bevel" stroke-miterlimit="10" points="
		730.541,541.975 637.641,371.928 655.828,311.365 	"/>
</g>
<polyline fill="none" points="676.063,311.365 657.874,371.928 750.774,541.975 "/>
<text transform="matrix(-0.2876 0.9578 -0.9578 -0.2876 670.1875 334.0842)" fill="#656A6C" font-family="'MicrosoftJhengHeiBold'" font-size="15.0035">和</text>
<text transform="matrix(-0.2876 0.9578 -0.9578 -0.2876 665.8711 348.4612)" fill="#656A6C" font-family="'MicrosoftJhengHeiBold'" font-size="15.0035">平</text>
<text transform="matrix(-0.2876 0.9578 -0.9578 -0.2876 665.7461 367.4915)" fill="#656A6C" font-family="'MicrosoftJhengHeiBold'" font-size="15.0035">一</text>
<text transform="matrix(-0.2876 0.9578 -0.9578 -0.2876 672.9414 380.6682)" fill="#656A6C" font-family="'MicrosoftJhengHeiBold'" font-size="15.0035">路</text>
<line fill="none" x1="218.693" y1="123.38" x2="218.693" y2="546.568"/>
<text transform="matrix(-4.371139e-008 1 -1 -4.371139e-008 218.666 265.1165)" fill="#656A6C" font-family="'MicrosoftJhengHeiBold'" font-size="15">中</text>
<text transform="matrix(-4.371139e-008 1 -1 -4.371139e-008 218.666 280.0999)" fill="#656A6C" font-family="'MicrosoftJhengHeiBold'" font-size="15">山</text>
<text transform="matrix(-4.371139e-008 1 -1 -4.371139e-008 218.666 295.1199)" fill="#656A6C" font-family="'MicrosoftJhengHeiBold'" font-size="15">一</text>
<text transform="matrix(-4.371139e-008 1 -1 -4.371139e-008 218.666 310.135)" fill="#656A6C" font-family="'MicrosoftJhengHeiBold'" font-size="15">路</text>
<g>
	<text transform="matrix(1 0 0 1 736.7002 466.5989)" fill="#005295" font-family="'MicrosoftJhengHeiBold'" font-size="15">往大寮</text>
</g>
<text transform="matrix(1 0 0 1 607.1475 153.8381)" fill="#09097F" font-family="'MicrosoftJhengHeiBold'" font-size="17.6073">民族站</text>
<g>
	<path fill="none" stroke="#52525B" stroke-width="25" stroke-miterlimit="10" d="M569.227,188.523c0,0,53.021-3.377,74.788,9.146
		c21.771,12.521,74.505,98.104,74.505,98.104"/>
</g>
<path fill="#09097F" d="M603.367,148.275c-0.042-0.045-0.104-0.029-0.152-0.029c-1.02-0.002-2.037,0-3.057,0
	c-1.983,0-3.969,0-5.95-0.002c-0.127,0-0.128,0-0.128-0.131c0-0.331,0-0.655,0-0.985c0-0.125,0.001-0.127,0.131-0.127
	c0.577,0,1.156,0,1.732,0c2.385,0,4.771,0,7.154,0c0.198,0,0.221-0.021,0.188-0.222c-0.055-0.382-0.134-0.76-0.232-1.134
	c-0.23-0.891-0.584-1.729-1.045-2.521c-0.567-0.989-1.296-1.854-2.153-2.604c-0.646-0.563-1.354-1.033-2.112-1.419
	c-0.644-0.323-1.312-0.573-2.002-0.757c-0.383-0.104-0.773-0.183-1.17-0.229c-0.134-0.018-0.271-0.011-0.404-0.027
	c-0.04,0-0.081,0-0.119,0c-0.043,0.041-0.036,0.094-0.036,0.145c0,0.523,0,1.047,0,1.571c0,0.024,0,0.052,0.002,0.077
	c0.009,0.067,0.043,0.105,0.113,0.118c0.063,0.007,0.129,0.013,0.193,0.021c1.003,0.147,1.944,0.459,2.834,0.95
	c0.846,0.468,1.591,1.063,2.229,1.791c0.587,0.666,1.06,1.406,1.407,2.224c0.061,0.141,0.061,0.141-0.091,0.141
	c-2.156,0-4.316,0-6.477,0c-0.02,0-0.041-0.001-0.059,0c-0.066,0.005-0.093-0.024-0.093-0.094c0.004-0.149,0-0.306,0.003-0.46
	c0.001-0.377,0.185-0.65,0.536-0.793c0.479-0.188,0.964-0.375,1.441-0.563c0.135-0.059,0.152-0.079,0.152-0.225
	c0-0.556,0-1.105,0-1.666c-0.002-0.247-0.126-0.411-0.366-0.479c-0.8-0.22-1.614-0.333-2.438-0.363
	c-0.247-0.008-0.494-0.005-0.741,0.011c-0.286,0.021-0.573,0.036-0.856,0.073c-0.484,0.064-0.966,0.157-1.438,0.293
	c-0.201,0.063-0.323,0.224-0.323,0.434c-0.001,0.576-0.001,1.152,0,1.73c0,0.116,0.019,0.145,0.129,0.187
	c0.231,0.092,0.464,0.181,0.7,0.271c0.263,0.104,0.525,0.204,0.792,0.313c0.284,0.113,0.456,0.333,0.491,0.636
	c0.021,0.206,0.004,0.415,0.004,0.621c0,0.051-0.021,0.075-0.072,0.075c-0.029-0.001-0.063,0-0.094,0c-1.322,0-2.646,0-3.969,0
	c-0.848,0-1.688,0-2.527,0c-0.104,0-0.104-0.013-0.068-0.104c0.104-0.248,0.219-0.488,0.35-0.722c0.483-0.894,1.105-1.67,1.88-2.333
	c0.67-0.575,1.411-1.036,2.227-1.377c0.708-0.299,1.444-0.496,2.21-0.587c0.11-0.018,0.141-0.044,0.141-0.156
	c0.002-0.549,0.002-1.098,0.002-1.647c0-0.038-0.002-0.074-0.035-0.106c-0.045,0-0.09,0-0.139,0c-0.131,0.021-0.263,0.016-0.39,0.03
	c-0.377,0.04-0.746,0.12-1.11,0.216c-0.764,0.192-1.491,0.478-2.192,0.843c-0.813,0.422-1.55,0.943-2.222,1.562
	c-0.437,0.403-0.836,0.838-1.193,1.313c-0.499,0.659-0.917,1.363-1.25,2.119c-0.317,0.729-0.549,1.487-0.692,2.271
	c-0.021,0.144-0.05,0.281-0.063,0.42c-0.013,0.104,0.021,0.138,0.123,0.144c0.024,0.001,0.057,0,0.085,0c0.406,0,0.813,0,1.221,0
	c2.541,0,5.083,0,7.625,0c0.164,0,0.164,0,0.164,0.162c0,0.308,0,0.609,0,0.92c0,0.164,0,0.165-0.163,0.165c-2.97,0-5.941,0-8.914,0
	c-0.038,0-0.078-0.001-0.119,0c-0.033,0.001-0.064,0.008-0.094,0.031c0,0.031,0,0.067,0,0.104c0.02,0.049,0.006,0.103,0.01,0.15
	c-0.004,0.039,0.013,0.081-0.01,0.12c0,0.056,0,0.104,0,0.154c0.017,0.021,0.009,0.038,0.01,0.063
	c0.003,0.341,0.031,0.678,0.086,1.016c0.197,1.221,0.596,2.373,1.201,3.449c0.456,0.806,1.009,1.54,1.664,2.194
	c0.203,0.203,0.414,0.397,0.633,0.584c0.734,0.622,1.539,1.135,2.416,1.528c0.688,0.313,1.404,0.547,2.146,0.698
	c0.374,0.076,0.748,0.146,1.133,0.163c0.132,0.005,0.264,0.001,0.396,0.021c0.053,0,0.104,0,0.151,0
	c0.041-0.018,0.084-0.004,0.122-0.009c0.058,0.006,0.114-0.01,0.169,0.009c0.061,0,0.114,0,0.172,0
	c0.058-0.02,0.112-0.003,0.169-0.009c0.054,0.006,0.104-0.009,0.156,0.009c0.058,0,0.114,0,0.17,0
	c0.021-0.016,0.045-0.008,0.066-0.009c0.228-0.011,0.452-0.012,0.68-0.041c1.383-0.175,2.676-0.608,3.88-1.312
	c0.973-0.564,1.829-1.273,2.569-2.121c0.524-0.606,0.979-1.262,1.354-1.977c0.471-0.89,0.8-1.825,0.989-2.813
	c0.063-0.335,0.122-0.671,0.138-1.017c0.005-0.145,0.002-0.286,0.022-0.432c0-0.063,0-0.125,0-0.188
	c-0.021-0.059-0.005-0.112-0.009-0.167c0.003-0.042-0.014-0.084,0.009-0.122C603.367,148.309,603.367,148.292,603.367,148.275z
	 M601.282,150.221c-0.397,1.616-1.19,3.003-2.4,4.146c-1.151,1.089-2.51,1.796-4.063,2.117c-1.027,0.219-2.063,0.229-3.1,0.061
	c-3.146-0.522-5.746-2.823-6.644-5.886c-0.047-0.156-0.083-0.313-0.129-0.472c-0.02-0.05-0.005-0.066,0.049-0.063
	c0.014,0.002,0.025,0,0.042,0c2.348,0,4.695,0.001,7.043-0.002c0.082,0,0.104,0.019,0.104,0.102c-0.008,0.271-0.013,0.541,0,0.813
	c0.021,0.404-0.229,0.778-0.709,0.892c-1.296,0.304-2.591,0.618-3.886,0.926c-0.227,0.058-0.346,0.207-0.346,0.442
	c-0.003,0.259,0.002,0.518-0.003,0.777c-0.003,0.075,0.021,0.09,0.096,0.09c1.925-0.002,3.845-0.002,5.771-0.002
	c1.921,0,3.841,0,5.762,0.002c0.078,0,0.104-0.019,0.104-0.104c-0.009-0.253-0.004-0.508-0.004-0.759s-0.112-0.396-0.358-0.454
	c-1.313-0.313-2.625-0.626-3.938-0.938c-0.383-0.096-0.632-0.399-0.638-0.792c-0.006-0.312,0-0.614-0.005-0.925
	c-0.001-0.059,0.021-0.073,0.071-0.067c0.011,0.002,0.02,0,0.022,0c2.357,0,4.713,0.001,7.07-0.002
	C601.284,150.124,601.302,150.139,601.282,150.221z"/>
<g>
	<path fill="#005295" d="M154.213,152.091c0.952-0.201,1.945-0.148,2.9-0.065c1.12,0.104,1.713-0.27,2.19-1.312
		c0.988-2.158,2.154-4.237,3.213-6.363c0.258-0.519,0.536-0.773,1.161-0.756c1.549,0.049,3.099,0.016,4.629,0.016
		c-0.594,3.658-3.836,4.688-6.547,6.64c5.541,0,10.809,0,16.12,0c-0.184,0.621-0.597,0.438-0.905,0.438
		c-1.618,0.02-3.241,0.027-4.865-0.003c-0.589-0.008-0.843,0.021-0.676,0.772c0.51,2.284,0.874,4.602,1.367,6.891
		c0.155,0.716-0.064,0.802-0.686,0.791c-1.69-0.033-3.379-0.028-5.072-0.001c-0.496,0.008-0.75-0.12-0.841-0.641
		c-0.254-1.429-0.531-2.848-0.841-4.262c-0.098-0.438,0.091-0.625,0.424-0.799c0.477-0.252,0.942-0.526,1.369-0.984
		c-4.316,0-8.628,0-12.942,0C154.213,152.332,154.213,152.212,154.213,152.091z"/>
	<path fill="#005295" d="M179.644,144.027c-2.171,1.458-4.342,2.913-6.513,4.369c-0.23,0.156-0.462,0.278-0.758,0.274
		c-2.024-0.006-4.049-0.005-6.4-0.005c1.921-1.291,3.633-2.352,5.235-3.547c1.302-0.979,2.64-1.469,4.285-1.313
		c1.359,0.126,2.737,0.025,4.106,0.025C179.614,143.896,179.627,143.962,179.644,144.027z"/>
	<path fill="#015296" d="M163.286,153.862c-0.873,1.717-1.669,3.27-2.452,4.826c-0.159,0.314-0.371,0.448-0.722,0.445
		c-1.48-0.011-2.961-0.011-4.442,0c-0.474,0.003-0.644-0.107-0.388-0.593c0.731-1.399,1.448-2.812,2.149-4.227
		c0.181-0.361,0.428-0.467,0.815-0.461C159.863,153.873,161.479,153.862,163.286,153.862z"/>
	<path fill="#149CDF" d="M180.089,140.427L180.089,140.427c0,0-3.893-3.755-12.577-2.418c-0.422,0.032-0.841,0.085-1.253,0.177
		c-0.825,0.188-1.637,0.397-2.435,0.633c-11.235,3.195-16.206,10.771-16.206,10.771l0.005-0.003
		c-0.383,0.531-0.729,1.088-1.015,1.685c-0.487,1.021-0.355,1.188,0.733,1.19c1.446,0.006,2.891-0.026,4.336,0.021
		c0.344,0.015,0.607-0.011,0.777-0.336c0.215-0.776,0.689-1.423,1.145-2.063c2.868-4.005,6.79-6.604,11.327-8.327
		c3.765-1.431,7.631-2.176,11.637-1.193c2.979,0.73,5.203,2.347,5.847,5.563c0.09,0.439,0.103,0.901,0.178,1.623
		C183.123,144.751,182.191,142.174,180.089,140.427z"/>
	<path fill="#0093DD" d="M185.401,154.811c0.098-0.113,0.189-0.224,0.281-0.329c0.056-0.065,0.113-0.139,0.17-0.209
		c0.083-0.104,0.164-0.203,0.239-0.302c0.038-0.048,0.073-0.099,0.111-0.148c0.846-1.126,1.203-1.938,1.354-2.412
		c0.036-0.103,0.077-0.193,0.109-0.293c0-0.069,0-0.142,0-0.206c-1.515-0.01-3.035,0.063-4.545-0.04
		c-1.075-0.075-1.707,0.249-2.121,1.259c-0.256,0.624-0.707,1.184-1.132,1.721c-3.563,4.487-8.271,7.188-13.734,8.636
		c-3.24,0.858-6.531,1.117-9.771-0.004c-2.917-1.008-4.747-2.969-4.972-6.18c-0.057-0.097-0.116-0.103-0.178-0.006
		c-0.404,2.876,0.848,5.46,3.345,7.146c0.162,0.115,0.366,0.246,0.627,0.393c0.343,0.192,0.706,0.378,1.088,0.544
		c2.084,0.952,6.272,1.592,11.125,0.796c0.1-0.014,0.195-0.032,0.295-0.049c3.54-0.619,7.41-2.002,11.066-4.583
		c0.034-0.026,0.069-0.048,0.103-0.074c1.955-1.281,3.783-2.784,5.479-4.521c0.214-0.216,0.415-0.422,0.601-0.622
		c0,0,0-0.003,0.002-0.003c0-0.001,0.001-0.001,0.003-0.001c0.132-0.146,0.26-0.283,0.381-0.424
		C185.347,154.87,185.375,154.84,185.401,154.811z"/>
</g>
<path fill="#09097F" d="M182.947,189.377c-0.067-0.07-0.154-0.053-0.239-0.053c-1.586-0.005-3.169,0-4.757,0
	c-3.087,0-6.175,0-9.26-0.005c-0.198,0-0.199,0-0.199-0.197c0-0.516,0-1.026,0-1.54c0-0.195,0.003-0.198,0.204-0.198
	c0.899,0,1.8,0,2.697,0c3.709,0,7.421,0,11.134,0c0.31,0,0.336-0.032,0.292-0.338c-0.083-0.593-0.209-1.188-0.363-1.768
	c-0.364-1.383-0.908-2.688-1.624-3.926c-0.892-1.538-2.019-2.884-3.356-4.052c-1.003-0.877-2.103-1.606-3.289-2.208
	c-0.993-0.506-2.035-0.892-3.113-1.177c-0.598-0.158-1.203-0.287-1.82-0.357c-0.21-0.021-0.421-0.014-0.631-0.048
	c-0.063,0-0.123,0-0.187,0c-0.065,0.064-0.052,0.148-0.052,0.229c0,0.813,0,1.63,0,2.442c0,0.04,0,0.08,0.003,0.118
	c0.008,0.11,0.065,0.171,0.173,0.182c0.1,0.017,0.203,0.021,0.304,0.037c1.557,0.229,3.028,0.714,4.407,1.479
	c1.318,0.728,2.478,1.655,3.473,2.787c0.915,1.04,1.646,2.189,2.196,3.461c0.09,0.212,0.09,0.212-0.147,0.212
	c-3.355,0-6.712,0-10.069,0c-0.031,0-0.064-0.003-0.092,0c-0.104,0.008-0.145-0.035-0.144-0.144c0.003-0.234,0-0.477,0.001-0.715
	c0.002-0.587,0.287-1.015,0.834-1.229c0.748-0.297,1.502-0.585,2.251-0.888c0.209-0.086,0.237-0.119,0.237-0.343
	c0-0.866,0.001-1.729,0-2.594c-0.002-0.386-0.195-0.646-0.569-0.751c-1.245-0.343-2.511-0.521-3.798-0.566
	c-0.384-0.011-0.769-0.006-1.152,0.021c-0.447,0.03-0.895,0.058-1.333,0.115c-0.758,0.101-1.504,0.239-2.238,0.456
	c-0.312,0.093-0.502,0.343-0.502,0.67c-0.003,0.896-0.003,1.799,0,2.692c0,0.184,0.03,0.222,0.2,0.286
	c0.362,0.146,0.723,0.284,1.088,0.427c0.411,0.163,0.825,0.316,1.234,0.485c0.443,0.181,0.711,0.517,0.764,0.989
	c0.036,0.316,0.006,0.646,0.006,0.97c0,0.078-0.034,0.113-0.112,0.113c-0.045-0.001-0.097,0-0.147,0c-2.059,0-4.115,0-6.175,0
	c-1.31,0-2.62,0-3.932,0c-0.157,0-0.165-0.018-0.106-0.16c0.155-0.386,0.34-0.759,0.539-1.125c0.758-1.386,1.728-2.601,2.923-3.632
	c1.042-0.896,2.197-1.611,3.463-2.146c1.104-0.462,2.25-0.771,3.44-0.914c0.17-0.021,0.213-0.063,0.213-0.237
	c0.003-0.854,0.003-1.711,0.003-2.563c0-0.062-0.003-0.123-0.054-0.17c-0.07,0-0.141,0-0.214,0c-0.2,0.035-0.402,0.025-0.603,0.048
	c-0.586,0.063-1.162,0.189-1.731,0.335c-1.189,0.312-2.324,0.745-3.416,1.313c-1.259,0.653-2.413,1.468-3.454,2.431
	c-0.674,0.625-1.3,1.302-1.858,2.037c-0.778,1.023-1.429,2.122-1.944,3.299c-0.497,1.136-0.853,2.316-1.078,3.537
	c-0.038,0.218-0.079,0.437-0.103,0.654c-0.017,0.159,0.034,0.211,0.193,0.219c0.044,0.001,0.088,0,0.133,0c0.632,0,1.263,0,1.898,0
	c3.954,0,7.91,0,11.866,0c0.254,0,0.254,0,0.254,0.25c0,0.479,0,0.956,0,1.434c0,0.253,0,0.255-0.251,0.255
	c-4.623,0-9.248,0-13.871,0c-0.062,0-0.124-0.002-0.186,0c-0.055,0.005-0.104,0.015-0.146,0.055c0,0.053,0,0.104,0,0.161
	c0.028,0.073,0.008,0.154,0.015,0.23c-0.006,0.064,0.015,0.128-0.015,0.19c0,0.082,0,0.16,0,0.24
	c0.022,0.022,0.013,0.058,0.015,0.088c0.004,0.529,0.048,1.058,0.134,1.584c0.307,1.896,0.921,3.688,1.872,5.361
	c0.709,1.258,1.57,2.396,2.589,3.418c0.313,0.319,0.644,0.621,0.985,0.911c1.141,0.975,2.394,1.762,3.757,2.38
	c1.073,0.488,2.186,0.854,3.339,1.091c0.582,0.114,1.166,0.226,1.762,0.246c0.204,0.012,0.41,0.007,0.617,0.037
	c0.08,0,0.16,0,0.238,0c0.062-0.026,0.128-0.006,0.191-0.014c0.088,0.008,0.174-0.018,0.26,0.014c0.089,0,0.178,0,0.267,0
	c0.086-0.028,0.175-0.006,0.262-0.014c0.082,0.008,0.164-0.016,0.242,0.014c0.087,0,0.176,0,0.265,0
	c0.032-0.023,0.067-0.013,0.103-0.014c0.355-0.021,0.706-0.021,1.059-0.063c2.148-0.271,4.163-0.95,6.035-2.044
	c1.512-0.879,2.845-1.979,3.997-3.302c0.823-0.938,1.529-1.962,2.109-3.065c0.731-1.387,1.249-2.848,1.541-4.386
	c0.101-0.521,0.193-1.046,0.214-1.577c0.008-0.227,0.003-0.445,0.034-0.67c0-0.099,0-0.192,0-0.295
	c-0.029-0.084-0.007-0.172-0.013-0.26c0.004-0.063-0.015-0.127,0.013-0.188C182.947,189.428,182.947,189.403,182.947,189.377z
	 M179.702,192.405c-0.617,2.518-1.852,4.676-3.733,6.453c-1.795,1.694-3.906,2.795-6.322,3.299
	c-1.599,0.333-3.205,0.357-4.817,0.095c-4.897-0.815-8.944-4.396-10.34-9.16c-0.072-0.241-0.128-0.486-0.201-0.729
	c-0.022-0.08-0.006-0.104,0.076-0.099c0.022,0.003,0.043,0,0.067,0c3.652,0,7.306,0.003,10.96-0.003
	c0.125,0,0.164,0.027,0.158,0.158c-0.008,0.421-0.016,0.844,0,1.262c0.029,0.636-0.359,1.217-1.099,1.388
	c-2.016,0.478-4.033,0.96-6.046,1.44c-0.353,0.086-0.539,0.322-0.539,0.688c-0.003,0.402,0.005,0.812-0.003,1.209
	c-0.004,0.123,0.036,0.146,0.146,0.146c2.994-0.003,5.987-0.003,8.981-0.003c2.99,0,5.98,0,8.968,0.003
	c0.123,0,0.164-0.024,0.162-0.156c-0.009-0.395-0.003-0.79-0.003-1.182c0-0.396-0.181-0.616-0.565-0.708
	c-2.041-0.486-4.084-0.979-6.123-1.463c-0.596-0.146-0.985-0.621-0.993-1.231c-0.006-0.479,0.002-0.957-0.004-1.436
	c-0.002-0.095,0.033-0.12,0.112-0.108c0.015,0.003,0.028,0,0.04,0c3.667,0,7.332,0.003,11-0.003
	C179.705,192.255,179.733,192.278,179.702,192.405z"/>
<path fill="none" d="M575.56,172.105c0,0,53.021-3.377,74.788,9.146c21.771,12.521,74.504,98.104,74.504,98.104"/>
<text transform="matrix(0.9845 0.1755 -0.1755 0.9845 621.8672 173.2415)" fill="#656A6C" font-family="'MicrosoftJhengHeiBold'" font-size="15">凱</text>
<text transform="matrix(0.9845 0.1755 -0.1755 0.9845 636.2949 175.6194)" fill="#656A6C" font-family="'MicrosoftJhengHeiBold'" font-size="15">旋</text>
<text transform="matrix(0.9845 0.1755 -0.1755 0.9845 649.7598 180.178)" fill="#656A6C" font-family="'MicrosoftJhengHeiBold'" font-size="15">一</text>
<text transform="matrix(0.9845 0.1755 -0.1755 0.9845 660.7617 189.8811)" fill="#656A6C" font-family="'MicrosoftJhengHeiBold'" font-size="15">路</text>
<path fill="none" stroke="#232439" stroke-miterlimit="10" d="M565.038,123.381"/>
<g>
	<path fill="#3878C7" d="M565.313,105.824c0,0,0.487,0.1,1.4,0.282c0.498,0.097,0.932,0.208,1.483,0.346
		c0.272,0.063,0.567,0.14,0.886,0.217c0.295,0.077,0.547,0.159,0.85,0.247c0.292,0.086,0.603,0.178,0.924,0.271
		c0.161,0.05,0.325,0.103,0.495,0.147c0.167,0.05,0.295,0.102,0.446,0.15c0.288,0.104,0.626,0.217,0.906,0.326
		c0.279,0.111,0.566,0.229,0.866,0.354c0.282,0.121,0.522,0.246,0.802,0.374c0.285,0.129,0.521,0.261,0.769,0.396
		c0.466,0.271,0.895,0.562,1.244,0.854c0.689,0.596,1.127,1.237,1.153,1.923c0.011,0.682-0.025,1.398-0.104,2.146
		c-0.157,1.486-0.511,3.074-1.104,4.661c-0.296,0.794-0.651,1.589-1.063,2.369c-0.414,0.781-0.861,1.549-1.382,2.294
		c-0.509,0.743-1.058,1.463-1.646,2.146c-0.283,0.342-0.591,0.673-0.893,0.991c-0.315,0.318-0.624,0.634-0.918,0.932
		c-0.631,0.595-1.219,1.141-1.821,1.624c-0.285,0.242-0.565,0.468-0.854,0.678c-0.279,0.209-0.521,0.401-0.776,0.574
		c-0.481,0.348-0.901,0.621-1.196,0.807c-0.312,0.188-0.477,0.285-0.477,0.285h-0.544c0,0-0.164-0.1-0.476-0.285
		c-0.294-0.186-0.714-0.459-1.196-0.807c-0.26-0.173-0.497-0.365-0.776-0.574c-0.283-0.21-0.563-0.436-0.852-0.678
		c-0.604-0.483-1.192-1.029-1.823-1.624c-0.294-0.298-0.602-0.608-0.918-0.932c-0.3-0.318-0.604-0.649-0.892-0.991
		c-0.588-0.687-1.138-1.401-1.646-2.146c-0.52-0.745-0.967-1.513-1.382-2.294c-0.406-0.78-0.766-1.575-1.062-2.369
		c-0.6-1.587-0.944-3.175-1.104-4.661c-0.077-0.743-0.115-1.465-0.104-2.146c0.026-0.686,0.465-1.327,1.153-1.923
		c0.354-0.297,0.778-0.582,1.244-0.854c0.243-0.136,0.48-0.268,0.769-0.396c0.274-0.128,0.519-0.253,0.804-0.374
		c0.298-0.121,0.588-0.238,0.865-0.354c0.277-0.108,0.616-0.222,0.903-0.325c0.154-0.054,0.281-0.104,0.448-0.15
		c0.169-0.05,0.334-0.103,0.496-0.147c0.322-0.096,0.631-0.188,0.923-0.271c0.302-0.088,0.555-0.17,0.85-0.247
		c0.313-0.077,0.608-0.149,0.887-0.217c0.556-0.138,0.982-0.249,1.481-0.346c0.913-0.188,1.4-0.285,1.4-0.285L565.313,105.824
		L565.313,105.824z"/>
	<text transform="matrix(1 0 0 1 561.9873 121.7161)" fill="#FFFFFF" font-family="'MicrosoftJhengHeiBold'" font-size="10.1574">1</text>
</g>
<line fill="none" x1="559.903" y1="8.667" x2="559.903" y2="89.558"/>
<text transform="matrix(-4.371139e-008 1 -1 -4.371139e-008 560.1504 17.3933)" fill="#604C3F" font-family="'MicrosoftJhengHeiBold'" font-size="18">往</text>
<text transform="matrix(-4.371139e-008 1 -1 -4.371139e-008 560.1504 35.4119)" fill="#604C3F" font-family="'MicrosoftJhengHeiBold'" font-size="18">台</text>
<text transform="matrix(-4.371139e-008 1 -1 -4.371139e-008 560.1504 53.3972)" fill="#604C3F" font-family="'MicrosoftJhengHeiBold'" font-size="18">南</text>
<line fill="none" x1="645.449" y1="123.38" x2="841.534" y2="123.38"/>
<text transform="matrix(1 0 0 1 699.2041 123.1047)" fill="#604C3F" font-family="'MicrosoftJhengHeiBold'" font-size="18">往</text>
<text transform="matrix(1 0 0 1 717.2012 123.1047)" fill="#604C3F" font-family="'MicrosoftJhengHeiBold'" font-size="18">屏</text>
<text transform="matrix(1 0 0 1 735.2168 123.1047)" fill="#604C3F" font-family="'MicrosoftJhengHeiBold'" font-size="18">東</text>
<text transform="matrix(1 0 0 1 753.2139 123.3801)" fill="#604C3F" font-family="'MicrosoftJhengHeiBold'" font-size="18"> </text>
<text transform="matrix(1 0 0 1 757.7129 123.3801)" fill="#604C3F" font-family="'MicrosoftJhengHeiBold'" font-size="18"> </text>
<polyline fill="none" points="692.79,118.523 564.526,118.523 564.526,80.797 "/>
<g>
	<path fill="#005295" d="M151.989,472.771c0.841-0.177,1.718-0.129,2.561-0.058c0.989,0.088,1.514-0.239,1.936-1.159
		c0.872-1.903,1.902-3.736,2.837-5.619c0.228-0.457,0.474-0.688,1.025-0.668c1.368,0.044,2.737,0.017,4.089,0.017
		c-0.526,3.23-3.389,4.144-5.783,5.858c4.894,0,9.548,0,14.238,0c-0.163,0.549-0.528,0.389-0.798,0.391
		c-1.432,0.018-2.864,0.023-4.297-0.001c-0.521-0.008-0.743,0.02-0.597,0.684c0.45,2.019,0.771,4.063,1.207,6.087
		c0.137,0.635-0.058,0.709-0.605,0.697c-1.494-0.024-2.987-0.022-4.481-0.002c-0.438,0.011-0.664-0.104-0.744-0.563
		c-0.224-1.259-0.468-2.517-0.741-3.761c-0.085-0.395,0.079-0.555,0.376-0.707c0.421-0.228,0.831-0.47,1.207-0.871
		c-3.812,0-7.621,0-11.432,0C151.989,472.985,151.989,472.875,151.989,472.771z"/>
	<path fill="#005295" d="M174.452,465.653c-1.917,1.285-3.835,2.571-5.753,3.859c-0.204,0.137-0.409,0.243-0.671,0.242
		c-1.787-0.009-3.576-0.008-5.653-0.008c1.698-1.142,3.21-2.07,4.626-3.135c1.148-0.857,2.331-1.294,3.784-1.159
		c1.199,0.111,2.416,0.023,3.626,0.023C174.426,465.534,174.438,465.595,174.452,465.653z"/>
	<path fill="#015296" d="M160.003,474.333c-0.771,1.516-1.476,2.887-2.166,4.264c-0.14,0.277-0.327,0.396-0.639,0.396
		c-1.308-0.011-2.615-0.011-3.923-0.002c-0.418,0.003-0.566-0.096-0.343-0.521c0.647-1.239,1.28-2.48,1.899-3.73
		c0.16-0.321,0.379-0.413,0.72-0.408C156.98,474.344,158.408,474.333,160.003,474.333z"/>
	<path fill="#149CDF" d="M174.845,462.47L174.845,462.47c0.001,0-3.438-3.316-11.109-2.141c-0.373,0.026-0.741,0.076-1.105,0.158
		c-0.729,0.166-1.446,0.354-2.153,0.562c-9.924,2.819-14.315,9.513-14.315,9.513l0.005-0.002c-0.338,0.47-0.644,0.96-0.896,1.489
		c-0.431,0.896-0.314,1.047,0.646,1.05c1.278,0.006,2.555-0.026,3.83,0.02c0.304,0.011,0.538-0.009,0.687-0.296
		c0.19-0.688,0.608-1.258,1.011-1.822c2.532-3.533,5.997-5.826,10.006-7.354c3.324-1.265,6.74-1.923,10.277-1.056
		c2.631,0.646,4.595,2.066,5.165,4.909c0.078,0.396,0.09,0.802,0.157,1.438C177.525,466.285,176.703,464.01,174.845,462.47z"/>
	<path fill="#0093DD" d="M179.538,475.175c0.085-0.102,0.169-0.196,0.247-0.29c0.05-0.063,0.101-0.124,0.151-0.188
		c0.073-0.088,0.143-0.177,0.21-0.265c0.033-0.044,0.066-0.088,0.099-0.13c0.746-0.995,1.063-1.713,1.196-2.138
		c0.032-0.083,0.068-0.169,0.098-0.257c0-0.061,0-0.121,0-0.181c-1.34-0.005-2.683,0.059-4.015-0.035
		c-0.951-0.067-1.509,0.221-1.874,1.11c-0.226,0.552-0.625,1.044-0.999,1.519c-3.147,3.966-7.306,6.354-12.133,7.63
		c-2.863,0.762-5.769,0.989-8.632-0.005c-2.577-0.889-4.192-2.62-4.391-5.456c-0.05-0.083-0.104-0.089-0.157-0.005
		c-0.357,2.539,0.747,4.823,2.955,6.313c0.142,0.102,0.323,0.216,0.553,0.343c0.304,0.174,0.625,0.332,0.96,0.479
		c1.842,0.846,5.542,1.405,9.827,0.703c0.086-0.012,0.174-0.021,0.26-0.043c3.126-0.545,6.545-1.767,9.775-4.046
		c0.029-0.021,0.061-0.042,0.091-0.064c1.729-1.133,3.341-2.457,4.839-3.989c0.189-0.189,0.367-0.374,0.532-0.551
		c0,0,0-0.003,0.001-0.003c0,0,0.001-0.003,0.002-0.003c0.118-0.128,0.23-0.252,0.337-0.375
		C179.492,475.227,179.515,475.199,179.538,475.175z"/>
</g>
<g>
	<path fill="#005295" d="M468.085,518.682c0.843-0.177,1.72-0.129,2.563-0.059c0.989,0.089,1.516-0.238,1.938-1.158
		c0.871-1.903,1.899-3.736,2.837-5.619c0.229-0.457,0.475-0.688,1.023-0.668c1.368,0.044,2.737,0.017,4.089,0.017
		c-0.522,3.23-3.389,4.144-5.781,5.858c4.896,0,9.548,0,14.236,0c-0.16,0.549-0.525,0.389-0.798,0.391
		c-1.434,0.018-2.862,0.023-4.297-0.001c-0.521-0.008-0.743,0.02-0.598,0.684c0.449,2.019,0.771,4.063,1.207,6.087
		c0.138,0.635-0.061,0.709-0.604,0.697c-1.494-0.024-2.984-0.022-4.479-0.002c-0.438,0.011-0.664-0.104-0.744-0.563
		c-0.227-1.259-0.469-2.517-0.74-3.761c-0.085-0.395,0.079-0.555,0.376-0.707c0.422-0.228,0.832-0.47,1.207-0.871
		c-3.812,0-7.621,0-11.433,0C468.085,518.896,468.085,518.786,468.085,518.682z"/>
	<path fill="#005295" d="M490.548,511.564c-1.917,1.285-3.835,2.571-5.752,3.859c-0.205,0.137-0.408,0.243-0.672,0.242
		c-1.787-0.009-3.575-0.008-5.651-0.008c1.697-1.142,3.21-2.07,4.627-3.135c1.147-0.857,2.33-1.294,3.782-1.159
		c1.199,0.111,2.416,0.023,3.627,0.023C490.522,511.446,490.534,511.506,490.548,511.564z"/>
	<path fill="#015296" d="M476.101,520.244c-0.771,1.516-1.478,2.887-2.166,4.264c-0.142,0.277-0.328,0.396-0.64,0.396
		c-1.311-0.011-2.614-0.011-3.924-0.002c-0.418,0.003-0.565-0.096-0.345-0.521c0.646-1.239,1.28-2.48,1.898-3.73
		c0.16-0.321,0.38-0.413,0.722-0.408C473.077,520.255,474.505,520.244,476.101,520.244z"/>
	<path fill="#149CDF" d="M490.941,508.381L490.941,508.381c0.001,0-3.438-3.316-11.107-2.141c-0.372,0.026-0.741,0.076-1.104,0.158
		c-0.729,0.166-1.446,0.354-2.153,0.562c-9.924,2.819-14.313,9.513-14.313,9.513l0.006-0.002c-0.339,0.47-0.646,0.96-0.896,1.489
		c-0.432,0.896-0.313,1.047,0.646,1.05c1.276,0.006,2.555-0.026,3.83,0.02c0.305,0.011,0.538-0.009,0.688-0.296
		c0.189-0.688,0.607-1.258,1.012-1.822c2.532-3.533,5.997-5.826,10.007-7.354c3.323-1.265,6.739-1.923,10.275-1.056
		c2.632,0.646,4.596,2.066,5.165,4.909c0.077,0.396,0.092,0.802,0.156,1.438C493.622,512.197,492.8,509.921,490.941,508.381z"/>
	<path fill="#0093DD" d="M495.634,521.086c0.087-0.102,0.171-0.196,0.248-0.29c0.05-0.063,0.102-0.124,0.148-0.188
		c0.073-0.088,0.145-0.177,0.211-0.265c0.033-0.044,0.065-0.088,0.1-0.13c0.746-0.995,1.063-1.713,1.196-2.138
		c0.03-0.083,0.066-0.169,0.098-0.257c0-0.061,0-0.121,0-0.181c-1.34-0.005-2.685,0.059-4.015-0.035
		c-0.951-0.067-1.512,0.221-1.875,1.11c-0.228,0.552-0.624,1.044-0.998,1.519c-3.146,3.966-7.309,6.354-12.135,7.63
		c-2.861,0.761-5.771,0.989-8.633-0.005c-2.576-0.889-4.189-2.62-4.392-5.456c-0.051-0.083-0.104-0.089-0.156-0.005
		c-0.357,2.539,0.747,4.823,2.953,6.313c0.144,0.102,0.324,0.216,0.555,0.343c0.306,0.174,0.624,0.332,0.96,0.479
		c1.843,0.846,5.543,1.405,9.827,0.703c0.087-0.012,0.175-0.021,0.261-0.043c3.126-0.545,6.545-1.767,9.773-4.046
		c0.029-0.021,0.062-0.042,0.092-0.063c1.729-1.134,3.342-2.459,4.84-3.99c0.188-0.189,0.366-0.374,0.531-0.551
		c0,0,0-0.003,0.001-0.003c0,0,0.001-0.003,0.003-0.003c0.116-0.128,0.229-0.252,0.337-0.375
		C495.589,521.138,495.611,521.111,495.634,521.086z"/>
</g>
<g>
	<path fill="#005295" d="M638.907,518.682c0.842-0.177,1.719-0.129,2.563-0.058c0.986,0.088,1.514-0.239,1.937-1.159
		c0.871-1.903,1.901-3.736,2.837-5.619c0.229-0.457,0.477-0.688,1.025-0.668c1.368,0.044,2.734,0.017,4.089,0.017
		c-0.525,3.23-3.389,4.144-5.783,5.858c4.896,0,9.548,0,14.238,0c-0.162,0.549-0.527,0.389-0.798,0.391
		c-1.436,0.018-2.864,0.023-4.297-0.001c-0.521-0.008-0.743,0.02-0.6,0.684c0.449,2.019,0.771,4.063,1.207,6.087
		c0.137,0.635-0.059,0.709-0.604,0.697c-1.494-0.024-2.986-0.022-4.48-0.002c-0.438,0.011-0.664-0.104-0.744-0.563
		c-0.225-1.259-0.469-2.517-0.741-3.761c-0.085-0.395,0.079-0.555,0.379-0.707c0.422-0.228,0.829-0.47,1.204-0.871
		c-3.811,0-7.618,0-11.432,0C638.907,518.896,638.907,518.786,638.907,518.682z"/>
	<path fill="#005295" d="M661.37,511.564c-1.917,1.285-3.835,2.571-5.752,3.859c-0.205,0.137-0.409,0.243-0.672,0.242
		c-1.787-0.009-3.575-0.008-5.652-0.008c1.698-1.142,3.211-2.07,4.627-3.135c1.148-0.857,2.33-1.294,3.783-1.159
		c1.199,0.111,2.416,0.023,3.627,0.023C661.345,511.446,661.356,511.506,661.37,511.564z"/>
	<path fill="#015296" d="M646.923,520.244c-0.771,1.516-1.479,2.887-2.166,4.264c-0.144,0.277-0.328,0.396-0.642,0.396
		c-1.309-0.011-2.615-0.011-3.924-0.002c-0.418,0.003-0.566-0.096-0.343-0.521c0.646-1.239,1.277-2.48,1.896-3.73
		c0.16-0.321,0.379-0.413,0.724-0.408C643.898,520.255,645.327,520.244,646.923,520.244z"/>
	<path fill="#149CDF" d="M661.764,508.381L661.764,508.381c0.001,0-3.438-3.316-11.109-2.141c-0.372,0.026-0.741,0.076-1.104,0.158
		c-0.73,0.166-1.446,0.354-2.153,0.562c-9.924,2.819-14.315,9.513-14.315,9.513l0.006-0.002c-0.339,0.47-0.645,0.96-0.896,1.489
		c-0.43,0.896-0.314,1.047,0.646,1.05c1.277,0.006,2.558-0.026,3.83,0.02c0.308,0.011,0.538-0.009,0.688-0.296
		c0.188-0.688,0.605-1.258,1.011-1.822c2.533-3.533,5.997-5.826,10.006-7.354c3.324-1.265,6.74-1.923,10.277-1.056
		c2.631,0.646,4.595,2.066,5.165,4.909c0.078,0.396,0.091,0.802,0.157,1.438C664.444,512.197,663.622,509.921,661.764,508.381z"/>
	<path fill="#0093DD" d="M666.456,521.086c0.086-0.102,0.17-0.196,0.248-0.29c0.049-0.063,0.104-0.124,0.15-0.188
		c0.073-0.088,0.143-0.177,0.211-0.265c0.033-0.044,0.064-0.088,0.098-0.13c0.746-0.995,1.063-1.713,1.196-2.138
		c0.032-0.083,0.068-0.169,0.098-0.257c0-0.061,0-0.121,0-0.181c-1.34-0.005-2.683,0.059-4.015-0.035
		c-0.951-0.067-1.51,0.221-1.875,1.11c-0.226,0.552-0.624,1.044-0.998,1.519c-3.146,3.966-7.307,6.354-12.133,7.63
		c-2.863,0.762-5.771,0.989-8.633-0.005c-2.576-0.889-4.191-2.62-4.394-5.456c-0.051-0.083-0.104-0.089-0.155-0.005
		c-0.356,2.539,0.746,4.823,2.952,6.313c0.146,0.102,0.324,0.216,0.557,0.343c0.304,0.174,0.624,0.332,0.96,0.479
		c1.843,0.846,5.543,1.405,9.827,0.703c0.087-0.012,0.175-0.021,0.261-0.043c3.126-0.545,6.545-1.767,9.771-4.046
		c0.029-0.021,0.063-0.042,0.094-0.064c1.729-1.133,3.342-2.457,4.84-3.989c0.188-0.189,0.366-0.374,0.531-0.551
		c0,0,0-0.003,0.001-0.003c0,0,0.001-0.003,0.003-0.003c0.115-0.128,0.229-0.252,0.337-0.375
		C666.411,521.138,666.434,521.111,666.456,521.086z"/>
</g>
<line fill="none" x1="318.419" y1="97.898" x2="561.712" y2="97.898"/>
<text transform="matrix(1 0 0 1 405.5635 97.9524)" fill="#656A6C" font-family="'MicrosoftJhengHeiBold'" font-size="15">九</text>
<text transform="matrix(1 0 0 1 420.5684 97.9524)" fill="#656A6C" font-family="'MicrosoftJhengHeiBold'" font-size="15">如</text>
<text transform="matrix(1 0 0 1 435.584 97.9524)" fill="#656A6C" font-family="'MicrosoftJhengHeiBold'" font-size="15">二</text>
<text transform="matrix(1 0 0 1 450.5801 97.9524)" fill="#656A6C" font-family="'MicrosoftJhengHeiBold'" font-size="15">路</text>
<g>
	
		<text transform="matrix(0.9572 -0.2894 0.2894 0.9572 19.374 530.553)" fill="#005295" font-family="'MicrosoftJhengHeiBold'" font-size="15">往西子灣</text>
</g>
<g>
	<path fill="none" d="M542.617,560.027c0,9.737-7.521,17.635-16.807,17.635h-94.676c-9.281,0-16.807-7.896-16.807-17.635l0,0
		c0-9.736,7.523-17.633,16.807-17.633h94.676C535.093,542.394,542.617,550.29,542.617,560.027L542.617,560.027z"/>
	<text transform="matrix(1 0 0 1 426.0391 565.3948)" fill="#005295" font-family="'MicrosoftJhengHeiBold'" font-size="15">捷運信義國小站</text>
</g>
<g>
	<path fill="none" d="M704.217,560.027c0,9.738-5.732,17.635-12.808,17.635h-72.154c-7.071,0-12.808-7.896-12.808-17.635l0,0
		c0-9.736,5.731-17.633,12.808-17.633h72.154C698.482,542.394,704.217,550.29,704.217,560.027L704.217,560.027z"/>
	<text transform="matrix(1 0 0 1 617.832 565.3948)" fill="#005295" font-family="'MicrosoftJhengHeiBold'" font-size="15">文化中心站</text>
</g>
<g>
	<text transform="matrix(1 0 0 1 122.8188 448.0735)" fill="#005295" font-family="'MicrosoftJhengHeiBold'" font-size="15">美麗島站</text>
</g>
<g>
	<text transform="matrix(1 0 0 1 178.6436 63.2747)" fill="#005295" font-family="'MicrosoftJhengHeiBold'" font-size="15">往岡山</text>
</g>
<g>
	<text transform="matrix(1 0 0 1 177.8789 584.7454)" fill="#005295" font-family="'MicrosoftJhengHeiBold'" font-size="15">往小港</text>
</g>
<g>
	<path fill="#3ACEDD" d="M501.485,298.651c0,9.958-18.033,34.802-18.033,34.802s-18.033-24.844-18.033-34.802
		c0-9.959,8.074-18.03,18.033-18.03S501.485,288.692,501.485,298.651z"/>
	<circle fill="#FFFFFF" cx="483.452" cy="298.651" r="10.19"/>
</g>
<line fill="none" stroke="#52525B" stroke-width="15" stroke-miterlimit="10" x1="522.221" y1="295.12" x2="522.221" y2="523.5"/>
<line fill="none" stroke="#52525B" stroke-width="15" stroke-miterlimit="10" x1="435.584" y1="225.523" x2="435.584" y2="523.5"/>
<g>
	
		<line fill="none" stroke="#52525B" stroke-width="25" stroke-miterlimit="10" x1="201.137" y1="489.975" x2="765.79" y2="489.975"/>
	<g>
		<g>
			<path fill="#F29D09" d="M201.137,489.975c0,0,34.912-0.225,87.278-0.563c26.184-0.09,56.731-0.19,89.46-0.306
				c32.729-0.042,67.641-0.087,102.553-0.133c34.911,0.045,69.822,0.09,102.553,0.132c32.729,0.111,63.276,0.215,89.463,0.305
				c52.364,0.337,87.275,0.563,87.275,0.563s-34.911,0.226-87.275,0.563c-26.187,0.093-56.731,0.193-89.463,0.308
				c-32.729,0.042-67.642,0.087-102.553,0.132c-34.912-0.046-69.822-0.091-102.553-0.133c-32.729-0.112-63.277-0.219-89.46-0.309
				C236.049,490.198,201.137,489.975,201.137,489.975z"/>
		</g>
		<g>
			<g>
				<circle fill="#FFFFFF" cx="759.4" cy="489.975" r="5.64"/>
				<path fill="#F29D09" d="M759.4,496.364c-3.523,0-6.395-2.866-6.395-6.39c0-3.524,2.866-6.39,6.395-6.39
					c3.521,0,6.39,2.861,6.39,6.39C765.79,493.493,762.924,496.364,759.4,496.364C755.876,496.364,762.924,496.364,759.4,496.364z
					 M759.4,485.085c-2.697,0-4.895,2.188-4.895,4.89s2.192,4.89,4.895,4.89c2.693,0,4.89-2.188,4.89-4.89
					S762.098,485.085,759.4,485.085C756.702,485.085,762.098,485.085,759.4,485.085z"/>
			</g>
		</g>
	</g>
</g>
<line fill="none" x1="509.5" y1="487.682" x2="509.5" y2="259.302"/>
<text transform="matrix(-4.371139e-008 -1 1 -4.371139e-008 509.5 447.4446)"><tspan x="0" y="0" fill="#3F3F3F" font-family="'MicrosoftJhengHeiRegular'" font-size="15">開</tspan><tspan x="15.009" y="0" fill="#3F3F3F" font-family="'MicrosoftJhengHeiRegular'" font-size="15">封</tspan><tspan x="30.02" y="0" fill="#3F3F3F" font-family="'MicrosoftJhengHeiRegular'" font-size="15">街</tspan></text>
<line fill="none" x1="420.568" y1="523.5" x2="420.568" y2="225.523"/>
<text transform="matrix(-4.371139e-008 -1 1 -4.371139e-008 420.5684 450.9036)"><tspan x="0" y="0" fill="#3F3F3F" font-family="'MicrosoftJhengHeiRegular'" font-size="15">錦</tspan><tspan x="15.005" y="0" fill="#3F3F3F" font-family="'MicrosoftJhengHeiRegular'" font-size="15">田</tspan><tspan x="30.013" y="0" fill="#3F3F3F" font-family="'MicrosoftJhengHeiRegular'" font-size="15">路</tspan></text>
<circle fill="#FFFFFF" stroke="#000000" stroke-miterlimit="10" cx="201.137" cy="489.975" r="6.39"/>
<g>
	
		<line fill="none" stroke="#3BCEDD" stroke-width="25" stroke-linecap="round" stroke-miterlimit="10" x1="637.641" y1="371.928" x2="49.688" y2="371.928"/>
	<path fill="#FFFFFF" d="M637.641,371.928c0,0-36.747,0.225-91.864,0.561c-27.563,0.09-59.718,0.193-94.165,0.309
		c-34.45,0.042-71.197,0.087-107.944,0.133c-36.747-0.045-73.494-0.09-107.944-0.132c-34.45-0.111-66.604-0.218-94.164-0.308
		c-55.121-0.337-91.868-0.563-91.868-0.563s36.747-0.229,91.868-0.563c27.56-0.09,59.714-0.19,94.164-0.305
		c34.451-0.042,71.198-0.087,107.944-0.132c36.747,0.046,73.494,0.091,107.944,0.133c34.447,0.112,66.604,0.216,94.165,0.306
		C600.894,371.7,637.641,371.928,637.641,371.928z"/>
</g>
</svg>
