<?xml version="1.0" encoding="utf-8"?>
<!-- Generator: Adobe Illustrator 16.0.0, SVG Export Plug-In . SVG Version: 6.00 Build 0)  -->
<!DOCTYPE svg PUBLIC "-//W3C//DTD SVG 1.1//EN" "http://www.w3.org/Graphics/SVG/1.1/DTD/svg11.dtd">
<svg version="1.1" id="圖層_1" xmlns="http://www.w3.org/2000/svg" xmlns:xlink="http://www.w3.org/1999/xlink" x="0px" y="0px"
	 width="800px" height="600px" viewBox="0 0 800 600" enable-background="new 0 0 800 600" xml:space="preserve">
<g>
	
		<line fill="none" stroke="#EBEBEB" stroke-width="25" stroke-miterlimit="10" x1="561.712" y1="118.523" x2="318.419" y2="118.523"/>
	
		<line fill="none" stroke="#7C7B79" stroke-width="3" stroke-miterlimit="10" stroke-dasharray="30,30" x1="561.712" y1="118.523" x2="318.419" y2="118.523"/>
</g>
<g>
	<polyline fill="none" stroke="#EBEBEB" stroke-width="25" stroke-miterlimit="10" points="692.79,118.523 565.038,118.523 
		565.038,77.273 	"/>
	<g>
		<polyline fill="none" stroke="#3C3B3D" stroke-width="3" stroke-miterlimit="10" points="686.332,118.523 565.038,118.523 
			565.038,83.731 		"/>
		<g>
			<polygon fill="#604C3F" points="685.019,114.036 692.79,118.523 685.019,123.011 			"/>
		</g>
		<g>
			<polygon fill="#604C3F" points="569.525,85.045 565.038,77.273 560.551,85.045 			"/>
		</g>
	</g>
</g>
<g>
	
		<line fill="none" stroke="#EBEBEB" stroke-width="25" stroke-miterlimit="10" x1="49.688" y1="225.523" x2="612.052" y2="225.523"/>
	
		<line fill="none" stroke="#7C7B79" stroke-width="3" stroke-linecap="round" stroke-miterlimit="10" stroke-dasharray="30,30" x1="49.688" y1="225.523" x2="612.052" y2="225.523"/>
</g>
<g>
	
		<line fill="none" stroke="#EBEBEB" stroke-width="25" stroke-miterlimit="10" x1="201.137" y1="489.975" x2="765.79" y2="489.975"/>
	<g>
		
			<line fill="none" stroke="#F29D09" stroke-width="3" stroke-linecap="round" stroke-miterlimit="10" x1="201.137" y1="489.975" x2="759.72" y2="489.975"/>
		<g>
			<g>
				<circle fill="#FFFFFF" cx="759.4" cy="489.975" r="5.64"/>
				<path fill="#F29D09" d="M759.4,496.364c-3.523,0-6.391-2.866-6.391-6.39c0-3.524,2.866-6.39,6.391-6.39
					c3.523,0,6.39,2.865,6.39,6.39C765.79,493.497,762.924,496.364,759.4,496.364C755.876,496.364,762.924,496.364,759.4,496.364z
					 M759.4,485.085c-2.697,0-4.891,2.191-4.891,4.89s2.192,4.89,4.891,4.89c2.697,0,4.89-2.191,4.89-4.89
					S762.098,485.085,759.4,485.085C756.702,485.085,762.098,485.085,759.4,485.085z"/>
			</g>
		</g>
	</g>
</g>
<line fill="none" x1="115.055" y1="472.36" x2="692.001" y2="472.36"/>
<text transform="matrix(1 0 0 1 302.1602 472.4143)" fill="#656A6C" font-family="'MicrosoftJhengHeiBold'" font-size="15">中</text>
<text transform="matrix(1 0 0 1 317.1494 472.4143)" fill="#656A6C" font-family="'MicrosoftJhengHeiBold'" font-size="15">正</text>
<text transform="matrix(1 0 0 1 332.166 472.4143)" fill="#656A6C" font-family="'MicrosoftJhengHeiBold'" font-size="15">路</text>
<text transform="matrix(1 0 0 1 347.1641 472.4143)" fill="#656A6C" font-family="'MicrosoftJhengHeiBold'" font-size="15">三</text>
<text transform="matrix(1 0 0 1 362.1802 472.4143)" fill="#656A6C" font-family="'MicrosoftJhengHeiBold'" font-size="15">路</text>
<line fill="none" x1="159.755" y1="206.19" x2="736.7" y2="206.19"/>
<text transform="matrix(1 0 0 1 346.8604 206.2434)" fill="#656A6C" font-family="'MicrosoftJhengHeiBold'" font-size="15">建</text>
<text transform="matrix(1 0 0 1 361.8496 206.2434)" fill="#656A6C" font-family="'MicrosoftJhengHeiBold'" font-size="15">國</text>
<text transform="matrix(1 0 0 1 376.8672 206.2434)" fill="#656A6C" font-family="'MicrosoftJhengHeiBold'" font-size="15">二</text>
<text transform="matrix(1 0 0 1 391.8652 206.2434)" fill="#656A6C" font-family="'MicrosoftJhengHeiBold'" font-size="15">路</text>
<path fill="#EBEBEB" d="M121.727,147.8c0.603,0,1.09-0.487,1.09-1.09v-2.181c0-0.603-0.487-1.09-1.09-1.09l-18.53-9.001
	l-18.529,9.001c-0.603,0-1.09,0.487-1.09,1.09v2.181c0,0.603,0.487,1.09,1.09,1.09h1.088v26.16h-1.088
	c-0.603,0-1.09,0.486-1.09,1.09v2.181c0,0.603,0.487,1.09,1.09,1.09h16.35v-5.449c0-0.601,0.49-1.092,1.09-1.092h2.18
	c0.6,0,1.09,0.491,1.09,1.092v5.449h16.351c0.603,0,1.09-0.487,1.09-1.09v-2.181c0-0.604-0.487-1.09-1.09-1.09h-1.09V147.8H121.727z
	 M101.017,150.852c0-0.436,0.437-0.871,0.872-0.871h2.616c0.436,0,0.871,0.437,0.871,0.871v2.616c0,0.437-0.436,0.872-0.871,0.872
	h-2.616c-0.436,0-0.872-0.437-0.872-0.872V150.852L101.017,150.852z M101.017,157.392c0-0.436,0.437-0.871,0.872-0.871h2.616
	c0.436,0,0.871,0.437,0.871,0.871v2.616c0,0.437-0.436,0.872-0.871,0.872h-2.616c-0.436,0-0.872-0.437-0.872-0.872V157.392
	L101.017,157.392z M92.297,150.852c0-0.436,0.437-0.871,0.872-0.871h2.615c0.437,0,0.873,0.437,0.873,0.871v2.616
	c0,0.437-0.437,0.872-0.873,0.872h-2.615c-0.436,0-0.872-0.437-0.872-0.872V150.852L92.297,150.852z M95.784,160.88h-2.615
	c-0.436,0-0.872-0.437-0.872-0.872v-2.616c0-0.436,0.437-0.871,0.872-0.871h2.615c0.437,0,0.873,0.437,0.873,0.871v2.616
	C96.657,160.444,96.221,160.88,95.784,160.88L95.784,160.88z M96.657,169.6c0-3.611,2.927-6.54,6.539-6.54
	c3.612,0,6.54,2.929,6.54,6.54H96.657z M114.097,160.008c0,0.437-0.436,0.872-0.872,0.872h-2.616c-0.436,0-0.872-0.437-0.872-0.872
	v-2.616c0-0.436,0.437-0.871,0.872-0.871h2.616c0.437,0,0.872,0.437,0.872,0.871V160.008z M114.097,153.468
	c0,0.437-0.436,0.872-0.872,0.872h-2.616c-0.436,0-0.872-0.437-0.872-0.872v-2.616c0-0.436,0.437-0.871,0.872-0.871h2.616
	c0.437,0,0.872,0.437,0.872,0.871V153.468z"/>
<text transform="matrix(1 0 0 1 65.7041 201.384)" fill="#656A6C" font-family="'MicrosoftJhengHeiBold'" font-size="15">高雄火車站</text>
<g>
	
		<line fill="none" stroke="#EBEBEB" stroke-width="25" stroke-miterlimit="10" x1="201.137" y1="489.975" x2="59.194" y2="546.568"/>
	<g>
		<line fill="none" stroke="#F29D09" stroke-width="3" stroke-miterlimit="10" x1="201.137" y1="489.975" x2="64.833" y2="544.32"/>
		<g>
			<g>
				<circle fill="#FFFFFF" cx="65.13" cy="544.202" r="5.64"/>
				<path fill="#F29D09" d="M62.763,538.267c3.272-1.305,6.997,0.297,8.302,3.569c1.305,3.271-0.296,6.995-3.569,8.301
					c-3.272,1.306-6.997-0.296-8.302-3.568C57.889,543.297,59.491,539.571,62.763,538.267S59.491,539.571,62.763,538.267z
					 M66.94,548.743c2.505-0.999,3.73-3.848,2.731-6.354c-0.999-2.505-3.848-3.729-6.353-2.73c-2.505,0.999-3.73,3.849-2.731,6.354
					S64.436,549.741,66.94,548.743C69.445,547.744,64.436,549.741,66.94,548.743z"/>
			</g>
		</g>
	</g>
</g>
<path fill="none" stroke="#FFFFFF" stroke-width="3" stroke-linecap="round" stroke-miterlimit="10" stroke-dasharray="12,35" d="
	M699.31,492.439"/>
<g>
	<path fill="#005295" d="M451.489,492.031c0.691-0.146,1.413-0.107,2.104-0.048c0.813,0.073,1.245-0.196,1.591-0.952
		c0.718-1.565,1.563-3.072,2.332-4.618c0.188-0.376,0.39-0.563,0.844-0.549c1.124,0.036,2.25,0.013,3.36,0.013
		c-0.433,2.655-2.785,3.403-4.754,4.815c4.022,0,7.849,0,11.702,0c-0.134,0.451-0.433,0.319-0.656,0.321
		c-1.176,0.012-2.354,0.019-3.529-0.001c-0.43-0.007-0.612,0.014-0.492,0.56c0.37,1.659,0.635,3.341,0.992,5.002
		c0.112,0.521-0.048,0.583-0.497,0.575c-1.229-0.023-2.454-0.021-3.683-0.001c-0.359,0.006-0.545-0.089-0.611-0.466
		c-0.185-1.033-0.385-2.064-0.609-3.09c-0.07-0.321,0.065-0.454,0.309-0.582c0.348-0.184,0.685-0.384,0.993-0.716
		c-3.133,0-6.264,0-9.396,0C451.489,492.207,451.489,492.119,451.489,492.031z"/>
	<path fill="#005295" d="M469.95,486.18c-1.576,1.057-3.151,2.113-4.728,3.172c-0.168,0.112-0.337,0.2-0.551,0.199
		c-1.47-0.005-2.938-0.003-4.646-0.003c1.395-0.938,2.637-1.705,3.801-2.577c0.944-0.706,1.917-1.063,3.11-0.952
		c0.985,0.092,1.986,0.019,2.979,0.019C469.929,486.085,469.939,486.133,469.95,486.18z"/>
	<path fill="#015296" d="M458.076,493.317c-0.634,1.244-1.212,2.37-1.78,3.502c-0.114,0.23-0.269,0.327-0.524,0.326
		c-1.074-0.009-2.149-0.009-3.224-0.001c-0.344,0.002-0.467-0.079-0.283-0.431c0.532-1.018,1.054-2.038,1.563-3.065
		c0.131-0.265,0.311-0.34,0.591-0.336C455.592,493.324,456.766,493.317,458.076,493.317z"/>
	<path fill="#149CDF" d="M470.273,483.566L470.273,483.566c0.001,0-2.825-2.727-9.131-1.758c-0.306,0.022-0.608,0.063-0.907,0.131
		c-0.6,0.136-1.188,0.288-1.769,0.458c-8.157,2.32-11.765,7.818-11.765,7.818l0.003-0.002c-0.277,0.386-0.528,0.79-0.735,1.224
		c-0.354,0.738-0.258,0.86,0.531,0.863c1.05,0.005,2.1-0.021,3.147,0.016c0.251,0.009,0.441-0.007,0.563-0.243
		c0.157-0.564,0.501-1.033,0.832-1.497c2.081-2.906,4.928-4.791,8.222-6.044c2.732-1.039,5.539-1.58,8.447-0.867
		c2.161,0.531,3.776,1.7,4.244,4.037c0.064,0.322,0.074,0.656,0.129,1.179C472.477,486.703,471.801,484.831,470.273,483.566z"/>
	<path fill="#0093DD" d="M474.13,494.006c0.071-0.081,0.139-0.16,0.203-0.238c0.041-0.05,0.083-0.1,0.124-0.151
		c0.06-0.073,0.117-0.146,0.173-0.218c0.027-0.036,0.054-0.072,0.082-0.107c0.613-0.818,0.872-1.408,0.982-1.754
		c0.025-0.068,0.056-0.139,0.08-0.211c0-0.05,0-0.1,0-0.149c-1.102-0.004-2.204,0.048-3.301-0.029
		c-0.78-0.056-1.239,0.182-1.539,0.913c-0.187,0.453-0.514,0.857-0.821,1.248c-2.586,3.259-6.004,5.219-9.972,6.271
		c-2.352,0.623-4.739,0.812-7.094-0.003c-2.117-0.732-3.444-2.155-3.608-4.486c-0.041-0.068-0.084-0.073-0.129-0.004
		c-0.294,2.087,0.613,3.964,2.428,5.188c0.118,0.084,0.267,0.178,0.456,0.282c0.249,0.143,0.512,0.273,0.789,0.395
		c1.514,0.692,4.554,1.155,8.074,0.579c0.072-0.011,0.144-0.022,0.215-0.036c2.569-0.449,5.379-1.453,8.032-3.326
		c0.025-0.019,0.051-0.035,0.075-0.054c1.42-0.93,2.747-2.021,3.978-3.28c0.154-0.156,0.301-0.307,0.438-0.453v-0.001
		c0,0,0.001-0.001,0.002-0.001c0.097-0.105,0.189-0.207,0.277-0.308C474.093,494.049,474.111,494.027,474.13,494.006z"/>
</g>
<line fill="none" stroke="#EBEBEB" stroke-width="25" stroke-miterlimit="10" x1="565.038" y1="132.076" x2="565.038" y2="555.264"/>
<line fill="none" stroke="#7C7B79" stroke-width="3" stroke-linecap="round" stroke-miterlimit="10" x1="565.038" y1="132.076" x2="565.038" y2="138.076"/>
<line fill="none" stroke="#7C7B79" stroke-width="3.0968" stroke-linecap="round" stroke-miterlimit="10" stroke-dasharray="36.1288,36.1453" x1="565.038" y1="173.092" x2="565.038" y2="555.264"/>
<line fill="none" x1="584.227" y1="112.084" x2="584.227" y2="535.271"/>
<text transform="matrix(-4.371139e-008 1 -1 -4.371139e-008 584.0664 262.0315)" fill="#656A6C" font-family="'MicrosoftJhengHeiBold'" font-size="15">民</text>
<text transform="matrix(-4.371139e-008 1 -1 -4.371139e-008 584.0664 277.0344)" fill="#656A6C" font-family="'MicrosoftJhengHeiBold'" font-size="15">族</text>
<text transform="matrix(-4.371139e-008 1 -1 -4.371139e-008 584.0664 292.0486)" fill="#656A6C" font-family="'MicrosoftJhengHeiBold'" font-size="15">二</text>
<text transform="matrix(-4.371139e-008 1 -1 -4.371139e-008 584.0664 307.0364)" fill="#656A6C" font-family="'MicrosoftJhengHeiBold'" font-size="15">路</text>
<g>
	
		<line fill="none" stroke="#EBEBEB" stroke-width="25" stroke-miterlimit="10" x1="201.137" y1="123.381" x2="201.137" y2="546.568"/>
	<g>
		
			<line fill="none" stroke="#FF0000" stroke-width="3" stroke-linecap="round" stroke-miterlimit="10" x1="201.137" y1="129.087" x2="201.137" y2="540.497"/>
		<g>
			<g>
				<circle fill="#FFFFFF" cx="201.137" cy="129.387" r="5.301"/>
				<path fill="#FF0000" d="M195.13,129.387c0,3.312,2.695,6.006,6.006,6.006c3.311,0,6.006-2.695,6.006-6.006
					s-2.695-6.006-6.006-6.006C197.825,123.381,195.13,126.076,195.13,129.387S195.13,126.076,195.13,129.387z M205.733,129.387
					c0,2.535-2.061,4.596-4.596,4.596c-2.535,0-4.596-2.062-4.596-4.596c0-2.535,2.061-4.596,4.596-4.596
					C203.672,124.791,205.733,126.852,205.733,129.387S205.733,126.852,205.733,129.387z"/>
			</g>
		</g>
		<g>
			<g>
				<circle fill="#FFFFFF" cx="201.137" cy="540.178" r="5.64"/>
				<path fill="#FF0000" d="M194.747,540.179c0-3.522,2.867-6.391,6.39-6.391c3.523,0,6.39,2.867,6.39,6.391
					c0,3.522-2.867,6.39-6.39,6.39C197.614,546.569,194.747,543.7,194.747,540.179C194.747,536.656,194.747,543.7,194.747,540.179z
					 M206.026,540.179c0-2.696-2.193-4.891-4.89-4.891c-2.697,0-4.89,2.193-4.89,4.891s2.193,4.89,4.89,4.89
					C203.833,545.069,206.026,542.875,206.026,540.179S206.026,542.875,206.026,540.179z"/>
			</g>
		</g>
	</g>
</g>
<text transform="matrix(1 0 0 1 458.3682 355.7756)" font-family="'MicrosoftJhengHeiBold'" font-size="18">199號</text>
<g>
	
		<line fill="none" stroke="#285E78" stroke-width="25" stroke-linecap="square" stroke-miterlimit="10" x1="626.633" y1="371.928" x2="49.688" y2="371.928"/>
	
		<line fill="none" stroke="#3BCEDD" stroke-width="3" stroke-linecap="round" stroke-miterlimit="10" stroke-dasharray="12,30" x1="626.633" y1="371.928" x2="49.688" y2="371.928"/>
</g>
<line fill="none" x1="-41.313" y1="355.775" x2="535.633" y2="355.775"/>
<text transform="matrix(1 0 0 1 340.9434 355.3469)" font-family="'MicrosoftJhengHeiBold'" font-size="18">七</text>
<text transform="matrix(1 0 0 1 358.9624 355.3469)" font-family="'MicrosoftJhengHeiBold'" font-size="18">賢</text>
<text transform="matrix(1 0 0 1 376.9512 355.3469)" font-family="'MicrosoftJhengHeiBold'" font-size="18">路</text>
<text transform="matrix(1 0 0 1 394.9634 355.3469)" font-family="'MicrosoftJhengHeiBold'" font-size="18">一</text>
<text transform="matrix(1 0 0 1 412.9551 355.3469)" font-family="'MicrosoftJhengHeiBold'" font-size="18">路</text>
<g>
	
		<polyline fill="none" stroke="#EBEBEB" stroke-width="25" stroke-linecap="round" stroke-linejoin="bevel" stroke-miterlimit="10" points="
		730.541,541.975 637.641,371.928 655.828,311.365 	"/>
	
		<polyline fill="none" stroke="#7C7B79" stroke-width="3" stroke-linecap="round" stroke-linejoin="bevel" stroke-miterlimit="10" stroke-dasharray="30,30" points="
		730.541,541.975 637.641,371.928 655.828,311.365 	"/>
</g>
<polyline fill="none" points="676.063,311.365 657.874,371.928 750.774,541.975 "/>
<text transform="matrix(-0.2876 0.9578 -0.9578 -0.2876 670.1875 334.0842)" fill="#656A6C" font-family="'MicrosoftJhengHeiBold'" font-size="15.0007">和</text>
<text transform="matrix(-0.2876 0.9578 -0.9578 -0.2876 665.8701 348.4612)" fill="#656A6C" font-family="'MicrosoftJhengHeiBold'" font-size="15.0007">平</text>
<text transform="matrix(-0.2876 0.9578 -0.9578 -0.2876 665.7451 367.4924)" fill="#656A6C" font-family="'MicrosoftJhengHeiBold'" font-size="15.0007">一</text>
<text transform="matrix(-0.2876 0.9578 -0.9578 -0.2876 672.9414 380.6682)" fill="#656A6C" font-family="'MicrosoftJhengHeiBold'" font-size="15.0007">路</text>
<g>
	<path fill="#005295" d="M694.233,492.031c0.69-0.146,1.413-0.107,2.104-0.048c0.813,0.072,1.245-0.196,1.591-0.952
		c0.717-1.565,1.563-3.072,2.332-4.618c0.188-0.376,0.39-0.563,0.843-0.549c1.124,0.036,2.25,0.013,3.361,0.013
		c-0.433,2.655-2.785,3.403-4.754,4.815c4.021,0,7.848,0,11.702,0c-0.134,0.451-0.433,0.319-0.656,0.321
		c-1.176,0.012-2.354,0.019-3.53-0.001c-0.43-0.007-0.611,0.014-0.491,0.56c0.369,1.658,0.635,3.341,0.991,5.002
		c0.113,0.521-0.047,0.583-0.497,0.575c-1.228-0.023-2.454-0.021-3.682-0.001c-0.36,0.006-0.545-0.089-0.612-0.466
		c-0.184-1.034-0.385-2.065-0.608-3.091c-0.07-0.321,0.064-0.453,0.309-0.581c0.347-0.184,0.685-0.384,0.993-0.716
		c-3.133,0-6.264,0-9.396,0C694.233,492.207,694.233,492.119,694.233,492.031z"/>
	<path fill="#005295" d="M712.694,486.18c-1.576,1.057-3.152,2.113-4.729,3.172c-0.167,0.112-0.336,0.2-0.55,0.199
		c-1.47-0.005-2.939-0.004-4.647-0.004c1.396-0.938,2.639-1.704,3.803-2.576c0.943-0.707,1.917-1.063,3.109-0.953
		c0.986,0.092,1.987,0.02,2.98,0.02C712.673,486.085,712.684,486.132,712.694,486.18z"/>
	<path fill="#015296" d="M700.82,493.317c-0.635,1.243-1.213,2.37-1.78,3.502c-0.115,0.23-0.269,0.327-0.525,0.326
		c-1.073-0.009-2.148-0.009-3.223-0.001c-0.344,0.002-0.467-0.079-0.283-0.431c0.532-1.018,1.052-2.038,1.562-3.065
		c0.132-0.265,0.311-0.34,0.592-0.337C698.335,493.324,699.509,493.317,700.82,493.317z"/>
	<path fill="#149CDF" d="M713.018,483.565L713.018,483.565c0.001,0-2.824-2.726-9.13-1.757c-0.306,0.022-0.608,0.063-0.907,0.13
		c-0.601,0.137-1.188,0.289-1.77,0.459c-8.156,2.319-11.764,7.818-11.764,7.818l0.003-0.002c-0.277,0.386-0.529,0.789-0.736,1.224
		c-0.354,0.738-0.258,0.86,0.532,0.863c1.05,0.005,2.099-0.021,3.146,0.016c0.251,0.009,0.442-0.007,0.564-0.243
		c0.156-0.565,0.5-1.033,0.832-1.497c2.08-2.907,4.928-4.791,8.222-6.044c2.732-1.039,5.539-1.58,8.447-0.867
		c2.161,0.53,3.776,1.7,4.244,4.037c0.064,0.322,0.074,0.656,0.129,1.179C715.221,486.703,714.545,484.831,713.018,483.565z"/>
	<path fill="#0093DD" d="M716.874,494.006c0.071-0.081,0.139-0.161,0.203-0.238c0.041-0.05,0.083-0.102,0.124-0.151
		c0.06-0.073,0.117-0.146,0.173-0.219c0.027-0.035,0.054-0.071,0.082-0.106c0.613-0.818,0.872-1.408,0.981-1.754
		c0.026-0.069,0.057-0.139,0.08-0.211c0-0.05,0-0.1,0-0.149c-1.101-0.004-2.203,0.048-3.3-0.03c-0.78-0.055-1.239,0.183-1.539,0.914
		c-0.187,0.453-0.514,0.857-0.821,1.248c-2.586,3.259-6.005,5.219-9.972,6.271c-2.352,0.623-4.741,0.812-7.094-0.004
		c-2.117-0.731-3.445-2.154-3.609-4.485c-0.041-0.068-0.084-0.073-0.129-0.004c-0.293,2.087,0.614,3.964,2.429,5.188
		c0.116,0.084,0.266,0.178,0.454,0.282c0.25,0.143,0.514,0.273,0.79,0.395c1.514,0.692,4.555,1.155,8.075,0.578
		c0.072-0.01,0.144-0.021,0.214-0.035c2.569-0.449,5.379-1.453,8.033-3.326c0.025-0.019,0.05-0.035,0.075-0.054
		c1.42-0.93,2.747-2.021,3.977-3.28c0.155-0.156,0.302-0.307,0.438-0.453v-0.001c0,0,0.001-0.001,0.002-0.001
		c0.097-0.105,0.189-0.207,0.277-0.308C716.837,494.049,716.855,494.027,716.874,494.006z"/>
</g>
<line fill="none" x1="218.693" y1="123.38" x2="218.693" y2="546.568"/>
<text transform="matrix(-4.371139e-008 1 -1 -4.371139e-008 218.666 265.1179)" fill="#656A6C" font-family="'MicrosoftJhengHeiBold'" font-size="15">中</text>
<text transform="matrix(-4.371139e-008 1 -1 -4.371139e-008 218.666 280.1008)" fill="#656A6C" font-family="'MicrosoftJhengHeiBold'" font-size="15">山</text>
<text transform="matrix(-4.371139e-008 1 -1 -4.371139e-008 218.666 295.1199)" fill="#656A6C" font-family="'MicrosoftJhengHeiBold'" font-size="15">一</text>
<text transform="matrix(-4.371139e-008 1 -1 -4.371139e-008 218.666 310.135)" fill="#656A6C" font-family="'MicrosoftJhengHeiBold'" font-size="15">路</text>
<g>
	<ellipse fill="#F29D09" cx="756.762" cy="453.217" rx="31.238" ry="18"/>
	<text transform="matrix(1 0 0 1 734.2617 457.9338)" fill="#207E89" font-family="'MicrosoftJhengHeiBold'" font-size="15">往大寮</text>
</g>
<text transform="matrix(1 0 0 1 607.1475 153.8381)" fill="#09097F" font-family="'MicrosoftJhengHeiBold'" font-size="17.6073">民族站</text>
<g>
	<path fill="none" stroke="#EBEBEB" stroke-width="25" stroke-miterlimit="10" d="M569.227,188.523c0,0,53.021-3.377,74.788,9.145
		c21.771,12.521,74.505,98.107,74.505,98.107"/>
	<path fill="none" stroke="#7C7B79" stroke-width="3" stroke-miterlimit="10" stroke-dasharray="30,30" d="M569.227,188.523
		c0,0,53.021-3.377,74.788,9.145c21.771,12.521,74.505,98.107,74.505,98.107"/>
</g>
<path fill="#09097F" d="M603.367,148.275c-0.042-0.045-0.1-0.033-0.152-0.033c-1.02-0.001-2.037,0-3.057,0
	c-1.983,0-3.969,0-5.95-0.001c-0.127,0-0.128,0-0.128-0.128c0-0.331,0-0.659,0-0.989c0-0.125,0.001-0.127,0.131-0.127
	c0.577,0,1.156,0,1.732,0c2.385,0,4.771,0,7.158,0c0.198,0,0.217-0.021,0.187-0.218c-0.055-0.382-0.134-0.76-0.232-1.134
	c-0.234-0.891-0.584-1.731-1.045-2.523c-0.571-0.989-1.296-1.854-2.157-2.604c-0.644-0.564-1.35-1.033-2.112-1.419
	c-0.64-0.323-1.308-0.573-2.002-0.757c-0.383-0.102-0.773-0.183-1.17-0.228c-0.133-0.018-0.27-0.011-0.404-0.031
	c-0.04,0-0.081,0-0.119,0c-0.043,0.041-0.036,0.094-0.036,0.145c0,0.523,0,1.047,0,1.571c0,0.026,0,0.052,0.002,0.077
	c0.006,0.071,0.043,0.109,0.113,0.118c0.063,0.007,0.129,0.013,0.193,0.024c1.003,0.147,1.948,0.459,2.834,0.95
	c0.846,0.468,1.591,1.063,2.231,1.791c0.587,0.666,1.056,1.406,1.407,2.224c0.061,0.137,0.061,0.137-0.091,0.137
	c-2.156,0-4.316,0-6.473,0c-0.02,0-0.041-0.001-0.059,0c-0.066,0.005-0.093-0.024-0.093-0.09c0.004-0.153,0-0.306,0.003-0.46
	c0.001-0.377,0.185-0.654,0.536-0.793c0.48-0.189,0.964-0.375,1.445-0.566c0.134-0.055,0.152-0.079,0.152-0.221
	c0-0.556,0-1.109,0-1.666c-0.002-0.249-0.126-0.415-0.366-0.482c-0.8-0.22-1.614-0.333-2.439-0.363
	c-0.248-0.008-0.495-0.005-0.742,0.01c-0.286,0.02-0.573,0.037-0.856,0.074c-0.485,0.064-0.966,0.157-1.438,0.293
	c-0.201,0.06-0.323,0.22-0.323,0.43c-0.001,0.578-0.001,1.156,0,1.734c0,0.116,0.019,0.141,0.129,0.183
	c0.231,0.092,0.464,0.181,0.7,0.273c0.263,0.104,0.528,0.204,0.792,0.313c0.284,0.117,0.456,0.333,0.491,0.636
	c0.024,0.206,0.004,0.415,0.004,0.621c0,0.051-0.021,0.075-0.072,0.075c-0.029-0.001-0.063,0-0.094,0c-1.322,0-2.645,0-3.969,0
	c-0.844,0-1.686,0-2.527,0c-0.101,0-0.105-0.009-0.068-0.102c0.1-0.248,0.218-0.488,0.346-0.722c0.487-0.89,1.109-1.67,1.88-2.333
	c0.67-0.575,1.411-1.036,2.227-1.377c0.708-0.299,1.444-0.496,2.21-0.587c0.11-0.014,0.137-0.044,0.137-0.156
	c0.002-0.549,0.002-1.098,0.002-1.647c0-0.039-0.002-0.078-0.035-0.11c-0.045,0-0.09,0-0.137,0
	c-0.129,0.024-0.261,0.016-0.388,0.031c-0.377,0.041-0.746,0.122-1.113,0.215c-0.761,0.196-1.492,0.478-2.193,0.843
	c-0.81,0.422-1.55,0.943-2.221,1.561c-0.434,0.404-0.836,0.837-1.194,1.311c-0.499,0.659-0.917,1.363-1.25,2.119
	c-0.317,0.73-0.549,1.489-0.692,2.273c-0.024,0.14-0.05,0.281-0.065,0.42c-0.012,0.102,0.022,0.134,0.123,0.14
	c0.028,0.001,0.057,0,0.085,0c0.407,0,0.813,0,1.221,0c2.541,0,5.083,0,7.625,0c0.164,0,0.164,0,0.164,0.162c0,0.308,0,0.613,0,0.92
	c0,0.164,0,0.165-0.163,0.165c-2.97,0-5.943,0-8.914,0c-0.038,0-0.078-0.001-0.119,0c-0.035,0.001-0.068,0.008-0.094,0.034
	c0,0.032,0,0.068,0,0.102c0.018,0.049,0.006,0.102,0.01,0.151c-0.004,0.04,0.01,0.082-0.01,0.122c0,0.053,0,0.103,0,0.155
	c0.016,0.017,0.009,0.038,0.01,0.059c0.003,0.341,0.031,0.678,0.086,1.016c0.197,1.221,0.593,2.373,1.201,3.449
	c0.456,0.806,1.009,1.54,1.664,2.196c0.203,0.205,0.414,0.399,0.633,0.584c0.734,0.623,1.539,1.133,2.416,1.53
	c0.688,0.313,1.404,0.547,2.145,0.698c0.374,0.076,0.748,0.146,1.133,0.163c0.132,0.005,0.264,0.001,0.396,0.023
	c0.05,0,0.102,0,0.152,0c0.041-0.018,0.084-0.004,0.122-0.009c0.058,0.006,0.114-0.01,0.169,0.009c0.058,0,0.114,0,0.172,0
	c0.055-0.02,0.112-0.003,0.169-0.009c0.051,0.006,0.104-0.009,0.156,0.009c0.057,0,0.114,0,0.17,0
	c0.022-0.016,0.045-0.008,0.066-0.009c0.228-0.011,0.453-0.012,0.68-0.041c1.383-0.175,2.676-0.611,3.88-1.312
	c0.972-0.564,1.829-1.273,2.569-2.121c0.528-0.606,0.981-1.261,1.355-1.973c0.468-0.89,0.8-1.829,0.989-2.816
	c0.063-0.335,0.122-0.671,0.138-1.014c0.004-0.144,0.002-0.289,0.022-0.431c0-0.063,0-0.125,0-0.188
	c-0.019-0.055-0.005-0.112-0.009-0.167c0.003-0.042-0.01-0.084,0.009-0.122C603.367,148.309,603.367,148.292,603.367,148.275z
	 M601.282,150.221c-0.397,1.616-1.19,3.003-2.4,4.146c-1.151,1.089-2.51,1.796-4.063,2.121c-1.027,0.215-2.059,0.228-3.096,0.057
	c-3.146-0.522-5.746-2.823-6.644-5.886c-0.047-0.156-0.083-0.313-0.129-0.468c-0.016-0.05-0.005-0.07,0.049-0.064
	c0.014,0.002,0.027,0,0.042,0c2.348,0,4.695,0.001,7.043-0.002c0.082,0,0.105,0.019,0.104,0.102c-0.007,0.271-0.012,0.541,0,0.811
	c0.019,0.408-0.23,0.782-0.709,0.892c-1.295,0.304-2.59,0.618-3.885,0.926c-0.227,0.054-0.346,0.207-0.346,0.442
	c-0.003,0.259,0.002,0.518-0.003,0.777c-0.003,0.079,0.024,0.09,0.096,0.09c1.925-0.002,3.845-0.002,5.771-0.002
	c1.921,0,3.841,0,5.762,0.002c0.078,0,0.105-0.015,0.105-0.101c-0.009-0.253-0.004-0.508-0.004-0.759s-0.116-0.396-0.362-0.454
	c-1.312-0.313-2.625-0.626-3.935-0.941c-0.383-0.092-0.632-0.399-0.638-0.792c-0.006-0.308,0-0.614-0.005-0.921
	c-0.001-0.059,0.021-0.077,0.073-0.071c0.009,0.002,0.018,0,0.024,0c2.357,0,4.713,0.001,7.07-0.002
	C601.284,150.124,601.302,150.139,601.282,150.221z"/>
<g>
	<g>
		<path fill="#005295" d="M154.213,152.091c0.952-0.201,1.945-0.148,2.9-0.065c1.12,0.1,1.713-0.27,2.19-1.312
			c0.988-2.158,2.154-4.237,3.213-6.363c0.258-0.519,0.536-0.777,1.161-0.756c1.549,0.049,3.099,0.016,4.629,0.016
			c-0.594,3.658-3.836,4.688-6.547,6.636c5.541,0,10.809,0,16.12,0c-0.184,0.621-0.597,0.44-0.905,0.442
			c-1.618,0.016-3.241,0.027-4.865-0.003c-0.589-0.008-0.843,0.021-0.676,0.772c0.51,2.284,0.874,4.602,1.367,6.891
			c0.155,0.716-0.064,0.802-0.686,0.791c-1.69-0.033-3.379-0.028-5.072-0.001c-0.496,0.008-0.75-0.12-0.841-0.641
			c-0.254-1.425-0.531-2.844-0.841-4.258c-0.098-0.442,0.091-0.625,0.424-0.799c0.477-0.252,0.942-0.53,1.369-0.988
			c-4.316,0-8.628,0-12.942,0C154.213,152.332,154.213,152.212,154.213,152.091z"/>
		<path fill="#005295" d="M179.644,144.027c-2.171,1.458-4.342,2.913-6.513,4.369c-0.23,0.156-0.462,0.278-0.758,0.274
			c-2.024-0.006-4.049-0.005-6.4-0.005c1.921-1.291,3.633-2.348,5.235-3.547c1.302-0.975,2.64-1.465,4.285-1.313
			c1.359,0.126,2.737,0.025,4.106,0.025C179.614,143.896,179.627,143.962,179.644,144.027z"/>
		<path fill="#015296" d="M163.286,153.862c-0.873,1.713-1.669,3.266-2.452,4.826c-0.159,0.314-0.371,0.448-0.722,0.445
			c-1.48-0.011-2.961-0.011-4.442,0c-0.474,0.003-0.644-0.107-0.388-0.593c0.731-1.399,1.448-2.808,2.149-4.223
			c0.181-0.365,0.428-0.467,0.815-0.461C159.863,153.873,161.479,153.862,163.286,153.862z"/>
		<path fill="#149CDF" d="M180.089,140.427L180.089,140.427c0,0-3.893-3.755-12.577-2.418c-0.422,0.032-0.841,0.085-1.253,0.177
			c-0.825,0.188-1.637,0.397-2.435,0.633c-11.235,3.195-16.206,10.771-16.206,10.771l0.005-0.003
			c-0.383,0.531-0.729,1.088-1.015,1.685c-0.487,1.018-0.355,1.186,0.733,1.19c1.446,0.006,2.891-0.026,4.336,0.023
			c0.344,0.011,0.607-0.011,0.777-0.336c0.215-0.78,0.689-1.423,1.145-2.063c2.868-4.005,6.79-6.601,11.327-8.327
			c3.765-1.431,7.631-2.176,11.637-1.193c2.979,0.73,5.203,2.343,5.847,5.561c0.09,0.443,0.103,0.905,0.178,1.623
			C183.123,144.751,182.191,142.174,180.089,140.427z"/>
		<path fill="#0093DD" d="M185.401,154.811c0.098-0.113,0.189-0.224,0.281-0.329c0.056-0.069,0.113-0.139,0.17-0.209
			c0.083-0.104,0.164-0.203,0.239-0.302c0.038-0.048,0.073-0.099,0.111-0.148c0.846-1.126,1.203-1.94,1.354-2.416
			c0.036-0.099,0.077-0.193,0.109-0.292c0-0.07,0-0.139,0-0.207c-1.515-0.006-3.035,0.065-4.545-0.04
			c-1.075-0.075-1.707,0.249-2.121,1.259c-0.256,0.624-0.707,1.184-1.132,1.721c-3.563,4.487-8.271,7.188-13.734,8.636
			c-3.24,0.858-6.531,1.117-9.771-0.004c-2.917-1.008-4.747-2.969-4.972-6.18c-0.057-0.097-0.116-0.102-0.178-0.006
			c-0.404,2.876,0.848,5.46,3.345,7.148c0.162,0.115,0.366,0.246,0.627,0.389c0.343,0.196,0.706,0.378,1.088,0.544
			c2.084,0.952,6.272,1.592,11.125,0.796c0.1-0.014,0.195-0.032,0.295-0.049c3.54-0.619,7.41-2.002,11.066-4.583
			c0.034-0.026,0.069-0.048,0.103-0.074c1.955-1.281,3.783-2.784,5.479-4.521c0.214-0.215,0.415-0.421,0.601-0.624
			c0,0,0-0.001,0.002-0.001c0-0.001,0.001-0.001,0.003-0.001c0.132-0.146,0.26-0.286,0.381-0.423
			C185.347,154.87,185.375,154.84,185.401,154.811z"/>
	</g>
	<path fill="#09097F" d="M182.947,189.377c-0.067-0.07-0.154-0.053-0.239-0.053c-1.586-0.001-3.169,0-4.757,0
		c-3.087,0-6.175,0-9.26-0.001c-0.198,0-0.199,0-0.199-0.201c0-0.512,0-1.026,0-1.54c0-0.195,0.003-0.198,0.204-0.198
		c0.899,0,1.8,0,2.697,0c3.709,0,7.421,0,11.134,0c0.31,0,0.336-0.032,0.292-0.338c-0.083-0.593-0.209-1.184-0.363-1.764
		c-0.364-1.383-0.908-2.691-1.624-3.926c-0.892-1.538-2.019-2.884-3.356-4.052c-1.003-0.877-2.103-1.606-3.289-2.208
		c-0.993-0.506-2.035-0.892-3.113-1.177c-0.598-0.158-1.203-0.287-1.82-0.357c-0.21-0.025-0.421-0.014-0.631-0.048
		c-0.063,0-0.123,0-0.187,0c-0.065,0.064-0.052,0.148-0.052,0.227c0,0.817,0,1.63,0,2.446c0,0.04,0,0.08,0.003,0.118
		c0.008,0.11,0.065,0.171,0.173,0.182c0.1,0.013,0.203,0.021,0.304,0.037c1.557,0.229,3.028,0.714,4.407,1.477
		c1.318,0.728,2.478,1.656,3.473,2.787c0.915,1.04,1.646,2.193,2.196,3.461c0.09,0.212,0.09,0.212-0.147,0.212
		c-3.355,0-6.712,0-10.069,0c-0.031,0-0.064-0.003-0.092,0c-0.104,0.008-0.145-0.035-0.144-0.14c0.003-0.238,0-0.477,0.001-0.715
		c0.002-0.587,0.287-1.015,0.834-1.233c0.748-0.297,1.502-0.585,2.251-0.884c0.209-0.086,0.237-0.123,0.237-0.343
		c0-0.866,0.001-1.73,0-2.594c-0.002-0.386-0.195-0.646-0.569-0.751c-1.245-0.343-2.511-0.519-3.798-0.566
		c-0.384-0.011-0.769-0.006-1.152,0.018c-0.447,0.03-0.895,0.058-1.333,0.115c-0.758,0.101-1.504,0.243-2.238,0.456
		c-0.312,0.093-0.502,0.343-0.502,0.67c-0.003,0.899-0.003,1.799,0,2.696c0,0.18,0.03,0.218,0.2,0.286
		c0.362,0.144,0.723,0.284,1.088,0.427c0.411,0.163,0.825,0.316,1.234,0.485c0.443,0.181,0.711,0.517,0.764,0.989
		c0.036,0.32,0.006,0.647,0.006,0.97c0,0.078-0.034,0.113-0.112,0.113c-0.045-0.001-0.097,0-0.147,0c-2.059,0-4.115,0-6.175,0
		c-1.31,0-2.62,0-3.932,0c-0.157,0-0.165-0.014-0.106-0.16c0.155-0.386,0.34-0.759,0.539-1.125c0.758-1.386,1.728-2.6,2.923-3.632
		c1.042-0.896,2.197-1.611,3.463-2.144c1.104-0.462,2.25-0.771,3.44-0.914c0.17-0.021,0.213-0.067,0.213-0.241
		c0.003-0.854,0.003-1.71,0.003-2.563c0-0.062-0.003-0.123-0.054-0.17c-0.07,0-0.141,0-0.214,0c-0.2,0.035-0.402,0.025-0.603,0.048
		c-0.586,0.063-1.162,0.189-1.731,0.335c-1.189,0.308-2.324,0.745-3.416,1.311c-1.259,0.657-2.413,1.468-3.454,2.431
		c-0.674,0.625-1.3,1.302-1.858,2.037c-0.778,1.024-1.429,2.122-1.944,3.299c-0.497,1.136-0.853,2.316-1.078,3.537
		c-0.038,0.218-0.079,0.437-0.103,0.654c-0.017,0.16,0.034,0.211,0.193,0.219c0.044,0.001,0.088,0,0.133,0c0.632,0,1.263,0,1.898,0
		c3.954,0,7.91,0,11.866,0c0.254,0,0.254,0,0.254,0.25c0,0.48,0,0.956,0,1.434c0,0.253,0,0.255-0.251,0.255
		c-4.623,0-9.248,0-13.871,0c-0.062,0-0.124-0.002-0.186,0c-0.055,0.001-0.104,0.011-0.146,0.051c0,0.053,0,0.107,0,0.161
		c0.028,0.077,0.008,0.158,0.015,0.234c-0.006,0.064,0.015,0.128-0.015,0.19c0,0.082,0,0.16,0,0.241
		c0.022,0.025,0.013,0.057,0.015,0.087c0.004,0.533,0.048,1.058,0.134,1.584c0.307,1.898,0.921,3.69,1.872,5.365
		c0.709,1.255,1.57,2.396,2.589,3.418c0.313,0.319,0.644,0.621,0.985,0.911c1.141,0.971,2.394,1.759,3.757,2.38
		c1.073,0.488,2.186,0.85,3.339,1.088c0.582,0.117,1.166,0.225,1.762,0.249c0.204,0.008,0.41,0.003,0.617,0.037
		c0.08,0,0.16,0,0.238,0c0.062-0.03,0.128-0.006,0.191-0.014c0.088,0.008,0.174-0.018,0.26,0.014c0.089,0,0.178,0,0.267,0
		c0.086-0.032,0.175-0.006,0.262-0.014c0.082,0.008,0.164-0.016,0.242,0.014c0.087,0,0.176,0,0.265,0
		c0.032-0.027,0.067-0.013,0.103-0.014c0.355-0.02,0.706-0.021,1.059-0.064c2.148-0.273,4.163-0.952,6.035-2.042
		c1.512-0.879,2.845-1.983,3.997-3.302c0.823-0.94,1.529-1.962,2.109-3.069c0.731-1.383,1.249-2.844,1.541-4.382
		c0.101-0.521,0.193-1.046,0.214-1.579c0.008-0.225,0.003-0.447,0.034-0.668c0-0.099,0-0.196,0-0.295
		c-0.029-0.084-0.007-0.172-0.013-0.26c0.004-0.063-0.015-0.127,0.013-0.19C182.947,189.428,182.947,189.403,182.947,189.377z
		 M179.702,192.405c-0.617,2.514-1.852,4.672-3.733,6.453c-1.795,1.694-3.906,2.795-6.322,3.299
		c-1.599,0.333-3.205,0.357-4.817,0.091c-4.897-0.815-8.944-4.395-10.34-9.16c-0.072-0.241-0.128-0.486-0.201-0.729
		c-0.022-0.08-0.006-0.105,0.076-0.099c0.022,0.003,0.043,0,0.067,0c3.652,0,7.306,0.003,10.96-0.003
		c0.125,0,0.164,0.027,0.158,0.158c-0.008,0.421-0.016,0.844,0,1.262c0.029,0.636-0.359,1.217-1.099,1.388
		c-2.016,0.474-4.033,0.96-6.046,1.44c-0.353,0.086-0.539,0.322-0.539,0.689c-0.003,0.402,0.005,0.808-0.003,1.209
		c-0.004,0.123,0.036,0.142,0.146,0.142c2.994-0.003,5.987-0.003,8.981-0.003c2.99,0,5.98,0,8.968,0.003
		c0.123,0,0.164-0.024,0.162-0.156c-0.009-0.395-0.003-0.79-0.003-1.182c0-0.394-0.181-0.616-0.565-0.708
		c-2.041-0.486-4.084-0.975-6.123-1.463c-0.596-0.142-0.985-0.621-0.993-1.231c-0.006-0.479,0.002-0.957-0.004-1.436
		c-0.002-0.091,0.033-0.12,0.112-0.108c0.015,0.003,0.028,0,0.04,0c3.667,0,7.332,0.003,11-0.003
		C179.705,192.255,179.733,192.278,179.702,192.405z"/>
</g>
<path fill="none" d="M575.56,172.105c0,0,53.021-3.377,74.788,9.145c21.771,12.521,74.504,98.107,74.504,98.107"/>
<text transform="matrix(0.9845 0.1755 -0.1755 0.9845 621.8672 173.2415)" fill="#656A6C" font-family="'MicrosoftJhengHeiBold'" font-size="15">凱</text>
<text transform="matrix(0.9845 0.1755 -0.1755 0.9845 636.2949 175.6194)" fill="#656A6C" font-family="'MicrosoftJhengHeiBold'" font-size="15">旋</text>
<text transform="matrix(0.9845 0.1755 -0.1755 0.9845 649.7598 180.178)" fill="#656A6C" font-family="'MicrosoftJhengHeiBold'" font-size="15">一</text>
<text transform="matrix(0.9845 0.1755 -0.1755 0.9845 660.7617 189.8811)" fill="#656A6C" font-family="'MicrosoftJhengHeiBold'" font-size="15">路</text>
<path fill="none" stroke="#232439" stroke-miterlimit="10" d="M565.038,123.381"/>
<g>
	<path fill="#3878C7" d="M567.825,108.081c0,0,0.487,0.1,1.401,0.285c0.498,0.094,0.93,0.208,1.483,0.343
		c0.275,0.066,0.57,0.14,0.886,0.217c0.295,0.077,0.547,0.159,0.849,0.247c0.292,0.086,0.6,0.178,0.924,0.272
		c0.161,0.049,0.325,0.099,0.495,0.147c0.167,0.05,0.295,0.102,0.447,0.153c0.288,0.104,0.626,0.214,0.906,0.327
		c0.279,0.111,0.569,0.229,0.866,0.351c0.285,0.121,0.525,0.246,0.802,0.374c0.285,0.129,0.522,0.261,0.768,0.396
		c0.466,0.271,0.892,0.558,1.244,0.854c0.69,0.596,1.127,1.24,1.154,1.923c0.011,0.682-0.026,1.401-0.104,2.146
		c-0.16,1.487-0.51,3.075-1.105,4.662c-0.296,0.794-0.652,1.588-1.06,2.369c-0.415,0.781-0.864,1.549-1.382,2.294
		c-0.508,0.743-1.057,1.463-1.645,2.146c-0.283,0.342-0.591,0.673-0.89,0.994c-0.318,0.319-0.624,0.631-0.918,0.929
		c-0.631,0.595-1.218,1.141-1.823,1.624c-0.286,0.242-0.566,0.468-0.852,0.678c-0.279,0.209-0.52,0.401-0.776,0.574
		c-0.484,0.348-0.904,0.621-1.199,0.807c-0.309,0.187-0.474,0.285-0.474,0.285h-0.544c0,0-0.164-0.1-0.475-0.285
		c-0.294-0.186-0.714-0.459-1.197-0.807c-0.259-0.173-0.497-0.365-0.777-0.574c-0.285-0.21-0.563-0.436-0.851-0.678
		c-0.605-0.483-1.192-1.029-1.823-1.624c-0.294-0.298-0.601-0.608-0.918-0.929c-0.299-0.321-0.606-0.652-0.891-0.994
		c-0.588-0.683-1.137-1.401-1.644-2.146c-0.519-0.745-0.967-1.513-1.382-2.294c-0.406-0.781-0.765-1.575-1.061-2.369
		c-0.597-1.587-0.945-3.175-1.104-4.662c-0.077-0.743-0.115-1.464-0.104-2.146c0.028-0.683,0.464-1.327,1.155-1.923
		c0.354-0.297,0.778-0.582,1.244-0.854c0.243-0.136,0.481-0.268,0.766-0.396c0.277-0.128,0.518-0.253,0.803-0.374
		c0.298-0.121,0.588-0.238,0.866-0.352c0.279-0.112,0.618-0.222,0.905-0.326c0.155-0.053,0.282-0.104,0.449-0.153
		c0.169-0.05,0.334-0.1,0.496-0.147c0.323-0.096,0.631-0.188,0.923-0.272c0.301-0.088,0.553-0.17,0.848-0.247
		c0.314-0.077,0.61-0.149,0.886-0.217c0.555-0.135,0.984-0.249,1.483-0.343c0.914-0.187,1.401-0.285,1.401-0.285H567.825z"/>
	<text transform="matrix(1 0 0 1 564.499 123.9729)" fill="#FFFFFF" font-family="'MicrosoftJhengHeiBold'" font-size="10.1574">1</text>
</g>
<line fill="none" x1="559.903" y1="8.667" x2="559.903" y2="89.558"/>
<text transform="matrix(-4.371139e-008 1 -1 -4.371139e-008 560.1504 17.3933)" fill="#604C3F" font-family="'MicrosoftJhengHeiBold'" font-size="18">往</text>
<text transform="matrix(-4.371139e-008 1 -1 -4.371139e-008 560.1504 35.4119)" fill="#604C3F" font-family="'MicrosoftJhengHeiBold'" font-size="18">台</text>
<text transform="matrix(-4.371139e-008 1 -1 -4.371139e-008 560.1504 53.3972)" fill="#604C3F" font-family="'MicrosoftJhengHeiBold'" font-size="18">南</text>
<line fill="none" x1="645.449" y1="123.38" x2="841.534" y2="123.38"/>
<text transform="matrix(1 0 0 1 699.2041 123.1047)" fill="#604C3F" font-family="'MicrosoftJhengHeiBold'" font-size="18">往</text>
<text transform="matrix(1 0 0 1 717.2012 123.1047)" fill="#604C3F" font-family="'MicrosoftJhengHeiBold'" font-size="18">屏</text>
<text transform="matrix(1 0 0 1 735.2168 123.1047)" fill="#604C3F" font-family="'MicrosoftJhengHeiBold'" font-size="18">東</text>
<text transform="matrix(1 0 0 1 753.2139 123.3801)" fill="#604C3F" font-family="'MicrosoftJhengHeiBold'" font-size="18"> </text>
<text transform="matrix(1 0 0 1 757.7129 123.3801)" fill="#604C3F" font-family="'MicrosoftJhengHeiBold'" font-size="18"> </text>
<polyline fill="none" points="692.79,118.523 564.526,118.523 564.526,80.797 "/>
<g>
	<path fill="#005295" d="M194.408,492.031c0.691-0.146,1.412-0.107,2.105-0.048c0.813,0.072,1.244-0.196,1.591-0.952
		c0.717-1.565,1.563-3.072,2.332-4.618c0.187-0.376,0.389-0.563,0.843-0.549c1.124,0.036,2.249,0.013,3.36,0.013
		c-0.432,2.655-2.785,3.403-4.753,4.815c4.022,0,7.847,0,11.702,0c-0.134,0.451-0.434,0.319-0.656,0.321
		c-1.177,0.012-2.354,0.019-3.531-0.001c-0.429-0.007-0.611,0.014-0.491,0.56c0.37,1.658,0.634,3.341,0.992,5.002
		c0.112,0.521-0.048,0.583-0.497,0.575c-1.228-0.023-2.455-0.021-3.683-0.001c-0.36,0.006-0.545-0.089-0.611-0.466
		c-0.184-1.034-0.385-2.065-0.609-3.091c-0.07-0.321,0.065-0.453,0.309-0.581c0.346-0.184,0.683-0.384,0.992-0.716
		c-3.132,0-6.263,0-9.395,0C194.408,492.207,194.408,492.119,194.408,492.031z"/>
	<path fill="#005295" d="M212.869,486.18c-1.576,1.057-3.152,2.113-4.728,3.172c-0.168,0.112-0.336,0.2-0.551,0.199
		c-1.469-0.005-2.939-0.004-4.646-0.004c1.396-0.938,2.638-1.704,3.802-2.576c0.944-0.707,1.916-1.063,3.11-0.953
		c0.986,0.092,1.986,0.02,2.98,0.02C212.848,486.085,212.858,486.133,212.869,486.18z"/>
	<path fill="#015296" d="M200.995,493.317c-0.634,1.243-1.213,2.37-1.78,3.502c-0.115,0.23-0.269,0.327-0.525,0.326
		c-1.075-0.009-2.149-0.009-3.224-0.001c-0.344,0.002-0.466-0.079-0.282-0.431c0.532-1.018,1.052-2.038,1.561-3.065
		c0.131-0.265,0.311-0.34,0.592-0.336C198.51,493.324,199.684,493.317,200.995,493.317z"/>
	<path fill="#149CDF" d="M213.192,483.565L213.192,483.565c0.001,0-2.825-2.726-9.13-1.757c-0.306,0.022-0.609,0.063-0.908,0.13
		c-0.6,0.137-1.188,0.289-1.769,0.459c-8.156,2.319-11.765,7.818-11.765,7.818l0.004-0.002c-0.278,0.386-0.529,0.789-0.736,1.224
		c-0.354,0.738-0.258,0.86,0.531,0.863c1.05,0.005,2.1-0.021,3.148,0.016c0.25,0.009,0.442-0.007,0.564-0.243
		c0.156-0.565,0.5-1.033,0.831-1.497c2.081-2.907,4.928-4.791,8.223-6.044c2.732-1.039,5.539-1.58,8.446-0.867
		c2.162,0.53,3.776,1.7,4.245,4.037c0.064,0.322,0.074,0.656,0.129,1.179C215.395,486.703,214.719,484.831,213.192,483.565z"/>
	<path fill="#0093DD" d="M217.049,494.006c0.07-0.081,0.139-0.161,0.203-0.238c0.041-0.05,0.083-0.102,0.124-0.151
		c0.06-0.073,0.117-0.146,0.173-0.218c0.027-0.036,0.054-0.072,0.081-0.107c0.613-0.818,0.873-1.408,0.983-1.754
		c0.026-0.069,0.056-0.139,0.08-0.211c0-0.05,0-0.1,0-0.149c-1.101-0.004-2.205,0.048-3.3-0.029c-0.781-0.056-1.24,0.182-1.54,0.913
		c-0.186,0.453-0.513,0.857-0.821,1.248c-2.586,3.259-6.004,5.219-9.971,6.271c-2.353,0.623-4.741,0.812-7.094-0.004
		c-2.118-0.731-3.445-2.154-3.609-4.485c-0.041-0.068-0.085-0.073-0.129-0.004c-0.294,2.087,0.614,3.964,2.428,5.188
		c0.117,0.084,0.266,0.178,0.455,0.282c0.25,0.143,0.513,0.273,0.789,0.395c1.514,0.692,4.555,1.155,8.076,0.578
		c0.071-0.01,0.143-0.021,0.214-0.035c2.569-0.449,5.379-1.453,8.033-3.326c0.024-0.019,0.05-0.035,0.075-0.054
		c1.42-0.93,2.746-2.021,3.977-3.28c0.155-0.156,0.301-0.307,0.437-0.453c0,0,0-0.001,0.001-0.001c0,0,0.001-0.001,0.002-0.001
		c0.097-0.105,0.189-0.207,0.277-0.308C217.011,494.049,217.03,494.027,217.049,494.006z"/>
</g>
<line fill="none" x1="318.419" y1="97.898" x2="561.712" y2="97.898"/>
<text transform="matrix(1 0 0 1 405.5635 97.9524)" fill="#656A6C" font-family="'MicrosoftJhengHeiBold'" font-size="15">九</text>
<text transform="matrix(1 0 0 1 420.5684 97.9524)" fill="#656A6C" font-family="'MicrosoftJhengHeiBold'" font-size="15">如</text>
<text transform="matrix(1 0 0 1 435.584 97.9524)" fill="#656A6C" font-family="'MicrosoftJhengHeiBold'" font-size="15">二</text>
<text transform="matrix(1 0 0 1 450.5801 97.9524)" fill="#656A6C" font-family="'MicrosoftJhengHeiBold'" font-size="15">路</text>
<g>
	
		<ellipse transform="matrix(-0.2894 -0.9572 0.9572 -0.2894 -381.0613 711.3784)" fill="#F29D09" cx="73.52" cy="497.132" rx="18" ry="36.281"/>
	
		<text transform="matrix(0.9572 -0.2894 0.2894 0.9572 46.1484 510.342)" fill="#207E89" font-family="'MicrosoftJhengHeiBold'" font-size="15">往西子灣</text>
</g>
<g>
	<path fill="#F29D09" d="M524.889,529.707c0,9.738-7.523,17.634-16.806,17.634h-94.676c-9.281,0-16.806-7.896-16.806-17.634l0,0
		c0-9.737,7.524-17.633,16.806-17.633h94.676C517.364,512.074,524.889,519.97,524.889,529.707L524.889,529.707z"/>
	<text transform="matrix(1 0 0 1 408.3105 535.0745)" fill="#FFFFFF" font-family="'MicrosoftJhengHeiBold'" font-size="15">捷運信義國小站</text>
</g>
<g>
	<path fill="#F29D09" d="M694.895,529.707c0,9.738-5.733,17.634-12.808,17.634h-72.154c-7.072,0-12.808-7.896-12.808-17.634l0,0
		c0-9.737,5.734-17.633,12.808-17.633h72.154C689.16,512.074,694.895,519.97,694.895,529.707L694.895,529.707z"/>
	<text transform="matrix(1 0 0 1 608.5098 535.0745)" fill="#FFFFFF" font-family="'MicrosoftJhengHeiBold'" font-size="15">文化中心站</text>
</g>
<g>
	<g>
		<path fill="#FF0000" d="M236.842,507.639c-7.073,0-12.808,7.895-12.808,17.633s5.734,17.633,12.808,17.633h36.077v-35.266H236.842
			L236.842,507.639z"/>
		<path fill="#F29D09" d="M308.996,507.639h-36.077v35.266h36.077c7.073,0,12.808-7.895,12.808-17.633
			S316.069,507.639,308.996,507.639z"/>
	</g>
	<text transform="matrix(1 0 0 1 250.4189 529.9885)" fill="#FFFFFF" font-family="'MicrosoftJhengHeiBold'" font-size="15">美麗島</text>
</g>
<g>
	<ellipse fill="#FF0000" cx="201.144" cy="100.523" rx="31.238" ry="18"/>
	<text transform="matrix(1 0 0 1 178.6436 105.2395)" fill="#EBEBEB" font-family="'MicrosoftJhengHeiBold'" font-size="15">往岡山</text>
</g>
<g>
	<ellipse fill="#FF0000" cx="201.002" cy="572.48" rx="31.238" ry="18"/>
	<text transform="matrix(1 0 0 1 178.502 577.1975)" fill="#EBEBEB" font-family="'MicrosoftJhengHeiBold'" font-size="15">往小港</text>
</g>
<g>
	<circle fill="#32312D" cx="475.774" cy="295.12" r="33.816"/>
</g>
<g>
	
		<line fill="none" stroke="#D8D8D8" stroke-width="4.1883" stroke-linecap="round" stroke-linejoin="round" stroke-miterlimit="10" x1="466.516" y1="304.354" x2="477.439" y2="304.354"/>
	
		<path fill="none" stroke="#D8D8D8" stroke-width="4.1883" stroke-linecap="round" stroke-linejoin="round" stroke-miterlimit="10" d="
		M472.133,310.926h7.283l-3.642,3.889c0,0-15.649-15.096-15.649-23.739s7.007-15.649,15.65-15.649
		c8.643,0,15.648,7.007,15.648,15.649c0,3.432-2.469,7.883-5.445,12.001"/>
</g>
</svg>
